<svg version="1.1" xmlns="http://www.w3.org/2000/svg" xmlns:xlink="http://www.w3.org/1999/xlink" x="0px" y="0px"
	 width="720px" height="112.547px" viewBox="0 0 720 112.547" enable-background="new 0 0 720 112.547" xml:space="preserve">
<path d="M720,40.881c0,0.438,0,0.878,0,1.316
	c-0.31,0.092-0.238,0.4-0.323,0.609c-0.248,0.602-0.591,1.126-1.17,1.438c-1.447,0.78-2.854,1.635-4.396,2.224
	c-0.76,0.291-1.514,0.227-2.255-0.017c-0.566-0.188-0.962-0.582-1.188-1.167c-0.386-1.003-0.567-2.058-0.828-3.093
	c-0.551-2.19-1.514-4.125-3.472-5.395c-2.467-1.601-5.576-1.661-7.44,0.996c-1.026,1.464-0.839,3.083-0.305,4.654
	c0.841,2.478,2.516,4.396,4.331,6.213c1.509,1.512,3.017,3.031,4.466,4.601c3.712,4.021,5.351,8.845,5.378,14.261
	c0.023,4.826-1.313,9.3-4.406,12.97c-3.994,4.734-9.075,7.233-15.521,6.492c-3.547-0.406-6.825-1.386-9.696-3.479
	c-3.09-2.256-5.577-5.117-6.821-8.757c-1.484-4.347-1.529-8.756,0.835-12.888c2.181-3.809,6.846-6.386,11.46-5.29
	c5.172,1.229,7.9,7.166,4.897,11.527c-1.142,1.659-3.613,2.807-5.366,1.702c-0.263-0.164-0.575-0.255-0.822,0.039
	c-0.227,0.268-0.138,0.562,0.008,0.843c0.383,0.751,0.938,1.364,1.624,1.827c2.726,1.841,5.636,2.398,8.683,0.914
	c2.444-1.192,3.358-3.413,3.556-5.981c0.158-2.062-0.621-3.858-1.68-5.563c-1.526-2.453-3.714-4.304-5.727-6.312
	c-2.079-2.073-4.115-4.18-5.436-6.86c-1.676-3.404-1.859-6.896-0.906-10.554c1.787-6.872,7.211-10.139,13.527-10.379
	c3.559-0.136,7.023,0.405,10.262,1.878c4.546,2.069,7.178,5.767,8.462,10.509C719.798,40.405,719.684,40.73,720,40.881z
	 M670.005,103.041c0.264,2.621-0.851,4.648-2.777,6.26c-2.189,1.831-4.755,2.167-7.511,1.749c-5.191-0.786-9.075-3.645-12.242-7.634
	c-2.291-2.886-3.918-6.131-5.011-9.646c-0.022-0.073-0.019-0.154-0.031-0.276c2.795-0.035,5.542,0.155,8.232,0.88
	c0.773,0.211,1.1,0.872,1.397,1.522c0.757,1.641,1.499,3.288,2.448,4.834c1.396,2.271,3.146,4.143,5.741,5.047
	c0.283,0.102,0.572,0.192,0.868,0.249c1.057,0.213,2.069,0.077,2.784-0.772c0.748-0.889,0.662-1.954,0.221-2.955
	c-0.744-1.69-1.949-3.044-3.382-4.177c-3.167-2.504-6.854-3.844-10.755-4.671c-4.923-1.045-9.863-0.741-14.81-0.208
	c-4.084,0.438-8.147,1.02-12.199,1.711c-6.131,1.043-12.198,2.405-18.281,3.681c-5.332,1.119-10.632,2.41-15.984,3.443
	c-7.671,1.476-15.406,2.554-23.176,3.351c-4.58,0.469-9.19,0.832-13.782,0.722c-9.39-0.228-18.726-1.08-27.669-4.26
	c-6.674-2.374-13.114-5.253-18.991-9.273c-0.18-0.124-0.354-0.257-0.537-0.38c-0.332-0.227-0.659-0.499-0.475-0.934
	c0.172-0.404,0.596-0.328,0.944-0.286c0.581,0.07,1.104,0.313,1.619,0.575c3.875,1.962,7.94,3.43,12.104,4.627
	c6.622,1.906,13.383,2.572,20.252,2.185c7.38-0.42,14.617-1.765,21.841-3.27c5.815-1.211,11.652-2.334,17.479-3.503
	c7.331-1.469,14.652-3.015,22.07-3.981c7.469-0.971,14.946-1.878,22.438-2.664c4.987-0.525,9.95-0.573,14.935-0.232
	c1.439,0.1,2.87,0.351,4.346,0.54c-0.197-0.366-0.533-0.461-0.826-0.556c-0.847-0.266-1.182-0.884-1.343-1.696
	c-1.026-5.131-1.953-10.278-2.73-15.454c-0.168-1.11-0.485-2.201-0.59-3.314c-0.079-0.862-0.424-1.153-1.262-1.17
	c-2.413-0.045-4.821-0.047-7.228,0.168c-1.772,0.153-3.542,0.359-5.316,0.469c-0.619,0.04-0.764,0.306-0.84,0.844
	c-0.405,2.851-0.558,5.726-0.803,8.592c-0.084,0.955-0.214,1.905-0.322,2.858c-0.175,1.529-0.518,1.879-2.079,1.944
	c-1.394,0.061-2.791,0.044-4.183,0.232c-0.841,0.115-1.688,0.176-2.534,0.267c-1.28,0.136-1.56-0.11-1.37-1.386
	c0.388-2.599,0.75-5.203,1.247-7.786c0.969-5.03,1.894-10.072,3.163-15.034c1.732-6.768,3.551-13.517,6.11-20.031
	c1.401-3.569,2.839-7.132,5.087-10.285c1.485-2.082,3.408-3.456,6.034-3.683c1.197-0.105,2.264,0.186,3.262,0.857
	c1.589,1.068,2.718,2.523,3.624,4.18c1.677,3.059,2.696,6.354,3.424,9.734c0.76,3.535,1.534,7.077,1.96,10.667
	c0.495,4.188,1.094,8.366,1.542,12.556c0.615,5.721,1.248,11.438,2.136,17.122c0.519,3.33,1.123,6.646,1.483,9.998
	c0.076,0.725,0.532,0.862,1.057,1.037c4.101,1.368,8.059,3.033,11.436,5.803c2.392,1.964,4.77,3.972,6.308,6.74
	C669.268,100.242,669.857,101.561,670.005,103.041z M635.371,52.778c-0.261-3.252-0.872-6.45-1.42-9.658
	c-0.323-1.888-0.646-3.777-1.169-5.623c-0.189-0.663-0.526-1.23-1.25-1.389c-0.739-0.161-1.343,0.161-1.833,0.689
	c-0.201,0.216-0.354,0.486-0.503,0.744c-0.661,1.142-1.136,2.369-1.583,3.602c-1.523,4.197-2.567,8.534-3.694,12.847
	c-0.182,0.691,0.044,0.729,0.598,0.648c2.956-0.43,5.933-0.62,8.909-0.808c0.354-0.019,0.711-0.059,1.065-0.057
	C635.49,53.777,635.453,53.786,635.371,52.778z M492.715,82.221c-1.995-3.705-3.536-7.576-4.502-11.69
	c-0.872-3.714-1.669-7.438-1.973-11.239c-0.279-3.501-0.196-6.995,0.194-10.5c0.482-4.363,1.112-8.693,2.163-12.958
	c0.981-3.981,1.625-8.059,3.324-11.844c0.352-0.784-0.021-1.21-0.876-1.151c-0.218,0.014-0.437,0.049-0.649,0.094
	c-3.196,0.661-6.406,1.163-9.68,1.267c-2.574,0.082-2.585,0.142-2.89,2.701c-0.37,3.102-0.79,6.201-1.058,9.311
	c-0.371,4.313-0.58,8.639-0.393,12.974c0.017,0.379-0.062,0.534-0.488,0.523c-2.579-0.065-5.145,0.215-7.712,0.391
	c-0.724,0.048-0.933-0.156-0.995-0.86c-0.303-3.44-0.6-6.877-0.754-10.328c-0.159-3.534-0.129-7.066-0.088-10.598
	c0.026-2.329,0.245-4.651,0.336-6.979c0.05-1.266-0.433-1.856-1.668-1.986c-2.485-0.26-4.927-0.745-7.371-1.241
	c-2.938-0.596-3.84,0.174-4.006,3.176c-0.317,5.708,0.027,11.398,0.515,17.079c0.529,6.222,1.467,12.399,1.79,18.647
	c0.224,4.373,0.753,8.735,1.12,13.112c0,0.931,0.021,1.862-0.005,2.793c-0.061,2.362-0.179,4.712-1.293,6.883
	c-1.044,2.043-2.83,2.647-4.689,1.544c-1.077-0.639-1.755-1.626-2.333-2.7c-1.462-2.715-2.047-5.645-2.155-8.69
	c-0.047-1.395-0.045-2.794-0.1-4.189c-0.023-0.592-0.008-1.395-0.74-1.464c-0.657-0.062-0.854,0.706-1.004,1.244
	c-0.938,3.34-1.251,6.732-0.652,10.164c0.389,2.247,1.196,4.364,2.122,6.457c1.349,3.049,3.397,5.388,6.329,6.981
	c3.397,1.849,7.946,1.336,10.828-1.239c1.828-1.631,3.061-3.65,3.817-5.949c1.2-3.627,1.537-7.398,1.578-11.189
	c0.041-3.643-0.097-7.288-0.521-10.912c-0.062-0.549,0.063-0.729,0.612-0.735c0.903-0.01,1.809-0.059,2.71-0.132
	c1.508-0.123,3.009-0.08,4.514,0.079c0.411,0.041,0.572,0.168,0.555,0.597c-0.049,1.128,0.188,2.238,0.252,3.356
	c0.353,6.276,1.351,12.471,2.29,18.674c0.192,1.27,0.628,1.667,1.912,1.861c0.38,0.06,0.763,0.092,1.145,0.121
	c2.802,0.222,5.529,0.77,8.137,1.858c1.287,0.538,2.586,1.055,3.896,1.532c0.387,0.142,0.896,0.327,1.209-0.142
	c0.299-0.446-0.105-0.777-0.341-1.082C494.234,84.695,493.403,83.505,492.715,82.221z M562.079,37.991
	c-1.82-2.745-1.926-5.789-1.355-8.943c0.873-4.852,6.008-9.933,12.089-10.748c5.738-0.77,11.236,0.053,16.594,2.155
	c4.318,1.693,8.315,3.947,11.911,6.864c3.808,3.087,6.658,6.921,8.675,11.408c2.379,5.301,2.762,10.83,2.038,16.497
	c-0.363,2.83-0.86,5.651-1.895,8.317c-1.457,3.738-3.709,6.989-6.441,9.928c-1.939,2.084-4.081,3.899-6.57,5.277
	c-4.111,2.271-8.46,3.871-13.147,4.448c-1.475,0.185-2.333-0.541-2.278-2.045c0.125-3.418,0.313-6.836,0.519-10.253
	c0.289-4.838,0.86-9.657,0.937-14.512c0.054-3.367,0.353-6.727,0.321-10.101c-0.048-4.983,0.132-9.974-0.965-14.892
	c-1.256-5.625-7.721-8.634-12.809-5.927c-0.688,0.366-1.33,0.82-1.605,1.627c2.22-1.736,4.634-2.035,7.14-0.927
	c2.146,0.945,3.657,2.613,4.411,4.851c0.829,2.46,0.844,6.693-1.666,8.904c-1.574,1.39-3.406,2.186-5.482,2.383
	C568.272,42.704,564.564,41.737,562.079,37.991z M593.137,72.902c0.041-0.004,0.108,0.012,0.145-0.014
	c0.198-0.146,0.398-0.293,0.582-0.456c6.43-5.685,9.045-12.96,8.667-21.364c-0.231-5.105-1.772-9.899-4.203-14.394
	c-1.255-2.32-2.849-4.385-4.908-6.125C594.616,44.696,594.416,58.8,593.137,72.902z M500.592,85.138
	c-1.36-0.66-2.425-1.788-3.352-2.989c-3.027-3.926-4.49-8.476-5.298-13.291c-0.483-2.869-0.891-5.757-0.85-8.663
	c0.091-6.276,0.745-12.478,3.27-18.325c1.513-3.504,3.205-6.904,5.812-9.769c2.846-3.125,6.069-5.634,10.152-7.004
	c3.907-1.312,9.39,0.24,12.339,3.775c3.538,4.242,5.368,9.165,6.219,14.542c0.509,3.224,0.755,6.463,0.796,9.722
	c0.066,6.991-1.706,13.538-5.152,19.562c-2.955,5.164-6.676,9.731-12.084,12.568C508.504,87.333,504.497,87.04,500.592,85.138z
	 M505.984,76.24c0.613,1.583,1.76,1.833,3.057,0.709c0.268-0.231,0.507-0.503,0.719-0.787c0.812-1.071,1.523-2.213,2.133-3.403
	c1.438-2.812,2.48-5.77,3.261-8.835c1.873-7.363,2.734-14.798,1.845-22.382c-0.217-1.849-0.375-3.713-1.065-5.465
	c-0.329-0.832-0.773-1.584-1.804-1.71c-1.057-0.129-1.793,0.382-2.372,1.176c-0.695,0.953-1.287,1.97-1.757,3.055
	c-1.222,2.816-2.201,5.696-2.952,8.688c-1.517,6.035-2.341,12.141-2.338,18.353c0,1.531-0.076,3.067,0.019,4.597
	C504.855,72.287,505.236,74.312,505.984,76.24z M691.416,27.724c1.465-0.901,1.655-1.451,0.84-2.955
	c-1.098-2.026-2.465-3.883-3.748-5.792c-0.396-0.589-0.958-0.734-1.66-0.542c-1.154,0.32-2.15,0.947-3.181,1.517
	c-5.565,3.071-10.32,7.102-14.237,12.107c-1.667,2.133-3.307,4.29-4.707,6.769c-1.245-2.052-2.543-3.929-3.579-5.943
	c-2.791-5.42-6.205-10.532-8.245-16.333c-0.138-0.392-0.332-0.781-0.823-0.813c-0.459-0.032-0.654,0.336-0.868,0.655
	c-0.859,1.278-1.853,2.441-2.924,3.543c-1.366,1.408-2.988,2.483-4.586,3.594c-0.594,0.412-0.755,0.903-0.386,1.547
	c0.353,0.618,0.691,1.244,1.05,1.859c3.793,6.475,7.714,12.875,11.682,19.245c0.823,1.32,1.756,2.592,1.857,4.239
	c0.061,1.011,0.229,2.016,0.287,3.026c0.204,3.673-0.05,7.34-0.209,11.008c-0.253,5.797-1.197,11.489-2.58,17.114
	c-0.147,0.604,0.008,0.9,0.562,1.031c0.834,0.189,1.608,0.533,2.394,0.858c3.379,1.389,6.654,2.969,9.536,5.259
	c0.832,0.661,1.112,0.548,1.302-0.53c0.238-1.381,0.301-2.775,0.391-4.171c0.363-5.55,0.769-11.098,1.094-16.65
	c0.312-5.362,0.367-10.733,0.153-16.105c-0.034-0.818,0.03-1.639,0.472-2.385c0.683-1.155,1.301-2.35,2.016-3.484
	c1.587-2.511,3.528-4.742,5.508-6.946C682.541,34.302,686.662,30.645,691.416,27.724z M532.753,34.519
	c0.657,5.288,0.996,10.58,0.706,15.911c-0.263,4.8-1.067,9.523-1.802,14.263c-1.126,7.277-3.313,14.229-6.21,20.978
	c-0.552,1.286-0.49,1.422,0.869,1.787c3.588,0.962,7.271,0.894,10.518,1.046c6.856-0.261,13.163-1.303,19.365-3.038
	c1.347-0.377,2.064-1.145,2.337-2.518c0.977-4.922,1.181-9.889,1.077-14.882c-0.01-0.433,0.086-0.958-0.419-1.149
	c-0.515-0.198-0.856,0.229-1.194,0.545c-0.118,0.111-0.206,0.257-0.306,0.387c-1.264,1.633-2.707,3.093-4.373,4.312
	c-2.969,2.172-6.369,3.094-9.96,3.506c-0.668,0.077-0.912-0.01-0.923-0.734c-0.068-4.22-0.052-8.435,0.23-12.648
	c0.304-4.515,0.831-9.004,1.501-13.472c0.703-4.684,1.631-9.331,2.59-13.971c0.656-3.167,1.367-6.316,2.306-9.411
	c0.333-1.101,0.646-2.209,0.937-3.321c0.42-1.61,0.004-2.149-1.613-1.962c-1.883,0.217-3.698,0.759-5.469,1.427
	c-1.946,0.735-3.892,1.479-5.824,2.252c-1.653,0.657-3.363,1.171-4.928,2.049c-0.665,0.374-0.898,0.828-0.7,1.617
	C532.047,29.803,532.458,32.147,532.753,34.519z M575.427,53.123c0.127-2.294,0.297-4.588,0.645-6.708
	c0.001-1.267-0.129-1.365-1.152-0.979c-3.798,1.429-7.411,1.039-10.848-1.101c-0.449-0.279-0.858-1.053-1.323-0.772
	c-0.563,0.34-0.135,1.112-0.051,1.679c1.193,8.062,1.825,16.16,1.569,24.316c-0.136,4.273-0.363,8.538-0.885,12.783
	c-0.125,1.004,0.163,1.311,1.121,1.15c2.59-0.43,5.208-0.728,7.761-1.369c1.66-0.42,2.115-1.026,2.017-2.756
	c-0.178-3.038-0.102-6.077-0.011-9.113C574.44,64.53,575.113,58.837,575.427,53.123z"/>
<path d="M417.315,99.907c-0.039,2.513-0.291,5.014-1.589,7.221
	c-1.622,2.762-3.789,4.185-6.445,3.78c-2.377-0.361-4.229-1.633-5.617-3.542c-1.775-2.441-2.487-5.247-2.764-8.225
	c-0.235-2.542-0.347-5.08-0.269-7.628c0.066-2.134,0.215-4.264,0.271-6.396c0.033-1.293-0.189-2.56-0.594-3.796
	c-0.23-0.711-0.665-1.256-1.211-1.725c-0.581-0.499-1.55-0.563-2.236-0.184c-0.918,0.507-1.555,1.289-2.065,2.179
	c-0.979,1.713-1.485,3.564-1.797,5.509c-0.486,3.054-1.069,6.092-2.044,9.038c-0.077,0.234-0.161,0.467-0.261,0.691
	c-0.351,0.791-0.749,0.986-1.566,0.654c-0.813-0.329-1.625-0.634-2.481-0.838c-0.865-0.208-1.033-0.587-0.829-1.446
	c0.592-2.452,0.781-4.967,1.106-7.461c0.938-7.217,1.074-14.466,1.033-21.728c-0.016-2.547-0.088-5.089-0.338-7.627
	c-0.172-1.709-0.073-1.846,1.576-2.426c0.93-0.328,1.84-0.723,2.79-0.972c1.346-0.354,1.872-0.012,2.026,1.354
	c0.298,2.664,0.684,5.333,0.74,8.007c0.092,4.209,0.005,8.425-0.559,12.612c-0.026,0.204-0.003,0.417-0.003,0.815
	c0.83-1.392,1.664-2.56,2.763-3.516c2.735-2.374,5.311-2.634,8.187-0.551c1.63,1.18,2.416,2.858,2.847,4.753
	c0.549,2.417,0.328,4.853,0.12,7.278c-0.28,3.243-0.598,6.484-0.951,9.719c-0.279,2.546-0.255,5.084,0.016,7.624
	c0.102,0.962,0.404,1.878,0.829,2.739c0.926,1.882,2.712,2.355,4.464,1.215c1.062-0.687,1.82-1.646,2.424-2.742
	c0.761-1.381,1.21-2.864,1.512-4.406c0.098-0.497,0.015-1.378,0.658-1.316C417.677,98.63,417.323,99.444,417.315,99.907z
	 M385.542,32.151c1.32,0.076,2.626-0.11,3.921-0.338c1.04-0.183,1.464-0.709,1.454-1.743c-0.007-0.713,0.004-1.426-0.046-2.134
	c-0.104-1.492-0.489-1.837-2.009-1.872c-1.289-0.031-2.575,0.021-3.855,0.177c-0.477,0.06-0.657-0.046-0.705-0.581
	c-0.207-2.436-0.113-4.875,0.043-7.298c0.197-3.081,1.29-5.806,3.839-7.781c1.673-1.295,3.997-1.341,5.641-0.036
	c0.692,0.551,0.971,1.27,0.773,2.233c-0.312-0.177-0.562-0.33-0.823-0.463c-2.178-1.119-4.458-0.179-5.03,2.069
	c-0.806,3.15,1.785,6.092,5.029,5.502c3.744-0.68,5.358-3.619,5.08-7.283c-0.333-4.419-4.402-6.93-8.042-7.006
	c-3.542-0.074-6.627,1.326-8.988,4.064c-2.448,2.841-3.647,6.201-3.906,9.906c-0.154,2.216-0.082,4.438-0.012,6.654
	c0.018,0.542-0.012,0.855-0.688,0.894c-0.647,0.037-1.283,0.257-1.922,0.412c-0.861,0.211-1.278,0.79-1.328,1.654
	c-0.06,1.004,0.179,1.962,0.5,2.895c0.209,0.605,0.665,0.933,1.322,0.904c0.574-0.027,1.146-0.071,1.719-0.123
	c0.635-0.059,0.967,0.177,1.017,0.855c0.07,0.98,0.266,1.956,0.3,2.937c0.055,1.608,0.298,3.237-0.123,4.824
	c-0.292,1.103-1.203,1.67-2.211,1.534c-0.912-0.124-1.418-0.769-1.524-1.95c-0.143-1.545-0.786-2.005-2.301-1.642
	c-0.546,0.133-1.006,0.428-1.411,0.808c-1.187,1.117-1.617,2.502-1.433,4.099c0.319,2.767,1.64,4.884,4.215,6.024
	c2.374,1.052,4.745,0.712,6.883-0.668c2.494-1.61,3.622-4.127,4.025-6.965c0.463-3.268,0.385-6.555-0.039-9.824
	C384.826,32.278,384.952,32.118,385.542,32.151z M381.771,67.733c-1.452,0.49-2.903,0.991-4.343,1.51
	c-0.503,0.183-0.715,0.125-0.636-0.472c0.425-3.2,0.828-6.404,1.251-9.604c0.138-1.042-0.155-1.342-1.159-1.099
	c-1.728,0.416-3.418,0.974-5.17,1.308c-1.328,0.254-1.521,0.556-1.695,1.925c-0.669,5.198-0.669,10.431-0.868,15.817
	c0.11,2.877,0.171,5.918,0.36,8.949c0.176,2.773,0.614,5.486,2.181,7.907c1.63,2.516,3.965,3.054,6.551,1.903
	c1.833-0.814,2.73-2.489,3.443-4.227c0.547-1.325,0.685-2.762,0.584-4.195c-0.031-0.431-0.159-0.934-0.693-0.999
	c-0.577-0.069-0.684,0.431-0.814,0.855c-0.137,0.444-0.26,0.893-0.418,1.331c-0.427,1.183-0.766,2.409-1.619,3.389
	c-0.634,0.727-1.356,0.597-1.669-0.321c-0.149-0.436-0.241-0.898-0.302-1.357c-0.269-2.041-0.216-4.1-0.298-6.152
	c-0.146-3.586-0.087-7.175,0.076-10.762c0.025-0.529,0.19-0.77,0.693-0.922c1.654-0.493,3.297-1.019,4.935-1.562
	c1.462-0.481,1.575-0.703,1.29-2.221C383.223,67.528,382.929,67.343,381.771,67.733z M431.899,85.03
	c0.043,2.548-0.665,4.889-1.999,7.022c-3.368,5.394-10.31,6-14.665,1.865c-2.508-2.38-3.977-5.28-4.132-8.762
	c-0.255-5.692,1.805-10.344,6.489-13.675c2.21-1.572,4.751-2.209,7.476-1.974c2.872,0.248,5.099,3.373,4.556,6.333
	c-0.539,2.943-2.356,5.009-4.617,6.755c-1.826,1.412-3.788,2.615-5.949,3.457c-0.482,0.188-0.65,0.419-0.497,0.916
	c0.269,0.864,0.556,1.718,0.986,2.521c1.768,3.283,4.934,2.986,7.156,1.513c2.199-1.456,3.195-3.677,3.659-6.191
	c0.108-0.588,0.162-1.197,0.439-1.743c0.118-0.23,0.271-0.439,0.566-0.376c0.27,0.058,0.416,0.267,0.435,0.535
	C431.845,83.826,431.868,84.428,431.899,85.03z M418.075,83.073c1.36-0.651,4.929-3.993,5.83-5.401
	c0.455-0.717,0.96-1.403,1.157-2.248c0.287-1.217,0.085-2.024-0.601-2.439c-0.711-0.43-1.788-0.209-2.636,0.548
	c-0.081,0.073-0.158,0.149-0.232,0.232C419.191,76.389,418.242,79.559,418.075,83.073z M401.207,21.017
	c2.879-1.327,6.014-0.093,7.705,2.926c1.151,2.057,1.59,4.292,1.842,6.589c0.278,2.553,0.177,5.092-0.456,7.581
	c-1.091,4.294-3.231,7.897-7.148,10.205c-3.797,2.237-7.001,0.895-8.992-2.748c-1.289-2.355-1.386-5.03-1.615-7.229
	c0.11-4.583,0.846-8.596,3.031-12.209C396.931,23.887,398.799,22.126,401.207,21.017z M397.677,40.275
	c0.052,1.625,0.045,3.292,0.896,4.792c0.633,1.116,1.225,1.248,2.219,0.421c1.412-1.176,2.229-2.748,2.938-4.393
	c1.601-3.713,2.011-7.644,2.149-11.625c0.118-1.555-0.073-3.07-0.584-4.535c-0.406-1.17-1.28-1.404-2.221-0.609
	c-0.291,0.245-0.55,0.54-0.771,0.848C399.059,29.686,397.499,34.727,397.677,40.275z M412.975,43.01
	c-0.06,0.817-0.059,1.644-0.018,2.462c0.026,0.479,0.189,0.982,0.864,0.756c1.432-0.478,2.903-0.791,4.375-1.109
	c0.548-0.117,0.779-0.465,0.742-1.004c-0.048-0.71-0.097-1.421-0.162-2.129c-0.484-5.097-0.94-10.193-0.729-15.324
	c0.135-3.259,1.189-6.1,3.676-8.313c0.242-0.216,0.456-0.542,0.942-0.414c-0.376,0.579-0.757,1.081-1.054,1.631
	c-0.968,1.799-1.366,3.616-0.219,5.524c1.15,1.917,3.54,2.372,5.302,0.997c2.564-2.002,4.446-8.053,1.485-11.982
	c-0.694-0.922-1.602-1.513-2.739-1.632c-2.26-0.238-4.124,0.563-5.612,2.279c-1.071,1.233-1.812,2.654-2.501,4.342
	c-0.343-1.546-0.781-1.741-2.053-1.083c-0.705,0.365-1.403,0.744-2.107,1.112c-0.513,0.271-0.791,0.69-0.71,1.27
	c0.416,2.93,0.604,5.874,0.693,8.831C413.291,33.822,413.317,38.418,412.975,43.01z"/>
<path d="M313.523,90.956c0.282,0.388,0.25,0.771-0.044,1.132
	c-0.772,0.943-1.722,1.683-2.761,2.305c-3.147,1.894-6.55,3.052-10.203,3.393c-5.246,0.488-8.964-2.808-10.427-7.381
	c-0.711-2.228-0.651-4.543-0.598-6.839c0.112-4.688,0.89-9.312,1.493-13.955c0.872-6.703,1.741-13.406,2.63-20.108
	c0.345-2.6,0.566-5.233,0.271-7.871c-0.127-1.132-0.425-2.207-1.079-3.155c-0.765-1.108-1.755-1.409-3.009-0.917
	c-1.9,0.746-3.021,2.242-3.681,4.079c-1.006,2.793-1.584,5.701-1.972,8.634c-0.519,3.935-0.966,7.879-1.388,11.827
	c-0.236,2.203-0.342,4.422-0.534,6.633c-0.204,2.346-0.435,4.69-0.666,7.031c-0.109,1.104-0.546,1.931-1.683,2.392
	c-2.345,0.949-4.753,1.669-7.226,2.155c-1.499,0.293-1.911-0.099-1.983-1.671c-0.082-1.76,0.162-3.501,0.304-5.248
	c0.333-4.067,0.473-8.149,0.722-12.221c0.212-3.478,0.37-6.952-0.033-10.42c-0.17-1.469-0.463-2.902-1.469-4.114
	c-1.46-1.757-3.756-1.61-5.047,0.3c-1.138,1.684-1.64,3.566-2.036,5.506c-0.675,3.307-0.997,6.65-1.184,10.021
	c-0.303,5.496-0.729,10.987-1.118,16.479c-0.093,1.31-0.236,2.618-0.366,3.927c-0.157,1.59-1.151,2.507-2.562,3.004
	c-3.798,1.328-7.632,2.547-11.633,3.127c-0.268,0.039-0.545,0.041-0.816,0.021c-0.449-0.033-0.652-0.189-0.366-0.678
	c1.673-2.864,2.639-6.009,3.524-9.175c1.3-4.646,2.262-9.364,2.935-14.144c0.341-2.422,0.414-4.858,0.509-7.293
	c0.244-6.215,0.357-12.435,0.174-18.654c-0.053-1.779-0.176-3.557-0.172-5.338c0.003-1.512,0.554-2.255,1.977-2.753
	c1.371-0.479,2.742-0.953,4.116-1.42c1.131-0.386,1.791-0.046,2.118,1.106c0.377,1.325,0.455,2.697,0.57,4.061
	c0.035,0.407,0.074,0.813,0.111,1.22c0.858-1.497,1.419-3.108,2.429-4.486c1.36-1.855,2.955-3.406,5.06-4.456
	c3.51-1.749,7.062,0.043,8.744,2.084c0.831,1.008,1.583,2.075,2.184,3.491c0.455-0.962,0.796-1.724,1.169-2.469
	c1.162-2.32,2.547-4.524,4.478-6.249c6.383-5.693,15.698-4.427,19.794,3.002c1.891,3.429,2.408,7.114,2.872,10.869
	c0.604,4.911,0.088,9.773-0.511,14.649c-0.651,5.304-1.831,10.517-2.51,15.813c-0.446,3.476-1.062,6.934-1.238,10.435
	c-0.147,2.928-0.148,5.863,0.493,8.754c0.266,1.199,0.828,2.25,1.583,3.216c1.03,1.314,2.366,1.703,3.949,1.346
	c0.829-0.19,1.628-0.479,2.389-0.868c0.242-0.124,0.495-0.231,0.754-0.32C312.908,90.65,313.261,90.593,313.523,90.956z
	 M197.027,81.47c-0.813-4.896-1.378-9.824-1.51-14.785c-0.159-5.95,0.062-11.887,0.806-17.801
	c0.789-6.252,1.715-12.476,3.403-18.569c0.609-2.194,1.458-4.306,2.072-6.493c0.346-1.231-0.119-1.673-1.344-1.359
	c-3.82,0.973-7.639,1.951-11.471,2.88c-0.665,0.161-0.973,0.492-1.127,1.115c-0.456,1.834-0.91,3.66-1.175,5.54
	c-0.813,5.778-1.652,11.55-2.016,17.379c-0.033,0.537-0.229,0.683-0.738,0.71c-5.047,0.267-10.021,1.029-14.919,2.281
	c-0.481,0.122-0.679,0.06-0.71-0.5c-0.133-2.434-0.32-4.865-0.467-7.298c-0.266-4.402-0.505-8.807-0.777-13.208
	c-0.088-1.431-0.108-1.411-1.399-0.707c-3.56,1.94-7.115,3.895-11.003,5.129c-0.415,0.131-0.458,0.388-0.455,0.745
	c0.022,2.766-0.072,5.54,0.082,8.298c0.193,3.443,0.614,6.873,0.89,10.312c0.393,4.889,0.637,9.784,0.7,14.692
	c0.03,2.362-0.031,4.725-0.419,7.043c-0.64,3.831-2.902,6.407-6.502,7.83c-0.972,0.382-1.064,1.141-0.242,1.779
	c0.325,0.25,0.648,0.504,0.968,0.762c2.989,2.412,6.117,4.629,9.312,6.755c0.503,0.334,0.985,0.373,1.549,0.153
	c1.284-0.501,2.219-1.411,2.962-2.515c3.133-4.657,4.795-9.843,5.135-15.409c0.201-3.304,0.101-6.627,0.071-9.942
	c-0.007-0.689,0.262-0.954,0.833-1.175c4.372-1.69,8.89-2.744,13.547-3.248c0.537-0.058,0.581,0.109,0.577,0.552
	c-0.018,1.919-0.008,3.835-0.008,5.755c-0.014,6.66,0.267,13.311,0.867,19.945c0.084,0.935,0.644,1.278,1.53,0.906
	c3.659-1.533,7.336-1.593,11.04-0.167c0.328,0.126,0.688,0.309,1.013,0.039c0.342-0.284,0.298-0.686,0.189-1.066
	C197.699,85.743,197.382,83.603,197.027,81.47z M350.765,66.1c-0.665,0.315-1.192,0.783-1.56,1.414
	c-0.498,0.851-0.972,1.715-1.374,2.616c-1.762,3.974-4.225,7.417-7.697,10.082c-2.599,1.997-5.505,3.201-8.814,3.11
	c-2.92-0.08-5.436-1.241-7.123-3.654c-3.059-4.378-2.638-9.986,0.95-13.954c2.927-3.237,6.671-5.205,10.731-6.604
	c2.878-0.992,3.25-0.75,3.193-4.438c-0.024-1.538-0.312-1.846-1.847-1.791c-2.583,0.095-5.063-0.381-7.5-1.201
	c-1.599-0.537-2.826-1.517-3.788-2.878c-3.145-4.457-1.929-10.185,1.003-14.295c1.925-2.699,4.75-4.137,8.043-4.634
	c3.266-0.495,6.271,0.044,8.902,2.153c0.304,0.243,0.667,0.541,0.344,0.947c-0.334,0.418-0.614,0.003-0.892-0.191
	c-2.846-1.984-6.235-1.47-8.363,1.515c-2.409,3.377-1.249,9.238,2.404,11.309c0.428,0.245,0.867,0.47,1.3,0.706
	c3.278,1.791,7.746,1.45,10.548-0.8c1.088-0.875,1.872-1.994,2.534-3.201c2.129-3.891,2.322-7.834,0.414-11.886
	c-1.746-3.708-4.81-5.932-8.42-7.443c-3.318-1.391-6.864-1.83-10.532-1.814c-3.726-0.244-7.246,0.747-10.615,2.421
	c-5.349,2.655-9.058,6.873-10.97,12.438c-1.966,5.72-1.254,11.35,1.793,16.625c1.073,1.858,2.312,3.589,4.001,4.956
	c0.257,0.207,0.525,0.42,0.095,0.765c-1.602,1.282-2.737,2.96-3.958,4.583c-3.008,4.003-4.601,8.386-4.272,13.458
	c0.221,3.391,1.238,6.424,3.337,9.089c2.664,3.385,5.938,5.8,10.298,6.506c3.6,0.583,7.192,0.618,10.77-0.164
	c5.81-1.267,10.673-4.098,14.214-8.933c2.518-3.438,3.976-7.365,4.717-11.544c0.252-1.42,0.425-2.876,0.081-4.326
	C352.453,65.934,351.795,65.613,350.765,66.1z M246.266,70.947c-1.515,4.198-3.452,8.184-6.154,11.738
	c-4.945,6.505-11.438,10.159-19.733,9.939c-5.236-0.14-10.008-1.885-13.98-5.394c-2.474-2.186-4.161-4.966-5.515-7.98
	c-1.711-3.812-2.093-7.832-2.305-11.929c-0.222-4.262,0.298-8.43,1.413-12.501c0.763-2.784,1.684-5.538,3.014-8.146
	c1.396-2.741,2.871-5.412,4.836-7.79c3.527-4.269,7.645-7.771,12.871-9.791c3.929-1.519,7.883-1.372,11.928-0.286
	c5.988,1.609,9.815,5.589,12.643,10.832c2.132,3.951,3.114,8.214,3.661,12.622c0.191,1.532,0.178,3.06,0.19,4.875
	C249.049,61.731,247.911,66.386,246.266,70.947z M241.149,64.613c-2.544-5.818-5.312-11.533-8.181-17.197
	c-1.21-2.391-2.269-4.87-3.77-7.098c-1.264-1.881-3.039-2.978-5.35-3.047c-2.801-0.083-4.804,1.272-6.203,3.597
	c-1.241,2.065-2.248,4.258-3.331,6.408c-2.905,5.768-5.726,11.577-8.319,17.494c-0.747,1.703-1.062,3.48-0.706,5.29
	c1.095,5.566,6.573,8.458,11.908,6.344c2.347-0.93,4.213-2.523,5.917-4.33c0.323-0.341,0.541-0.534,0.942-0.054
	c0.811,0.97,1.767,1.799,2.777,2.554c1.99,1.492,4.149,2.544,6.018,2.516c3.287-0.016,5.465-0.971,7.127-2.944
	C242.42,71.243,242.632,68.003,241.149,64.613z M147.858,34.942c-0.136-0.677,0.384-0.895,0.916-1.035
	c2.579-0.682,5.038-1.667,7.395-2.916c0.275-0.147,0.628-0.199,0.84-0.681c-0.778,0.151-1.456,0.195-2.133,0.247
	c-0.599,0.047-0.786-0.135-0.832-0.753c-0.31-4.1,0.14-8.152,0.71-12.197c0.557-3.957,1.706-7.71,4.156-10.938
	c2.691-3.547,6.018-6.143,10.619-6.624c2.665-0.278,4.946,0.74,6.978,2.353c4.108,3.261,4.396,8.063,2.793,12.881
	c-1.476,4.435-4.397,7.828-7.946,10.752c-2.992,2.465-6.415,4.19-9.92,5.753c-2.747,1.227-5.471,2.537-8.432,3.216
	c-1.311,0.301-2.644,0.446-3.977,0.588C148.497,35.646,147.979,35.545,147.858,34.942z M166.619,24.226
	c0.003,0.073,0.06,0.146,0.088,0.208c0.173,0.034,0.269-0.068,0.364-0.164c2.389-2.378,4.44-4.971,5.596-8.208
	c0.462-1.293,0.49-2.575,0.359-3.883c-0.091-0.897-0.55-1.665-1.188-2.294c-1.257-1.242-2.981-1.013-3.853,0.502
	c-0.426,0.738-0.738,1.528-0.901,2.37C166.353,16.556,166.459,20.391,166.619,24.226z M231.45,50.201
	c-1.364-2.716-2.647-5.477-4.202-8.091c-1.139-1.916-3.083-2.648-4.984-1.981c-1.435,0.502-2.198,1.662-2.854,2.921
	c-3.327,6.386-6.512,12.841-9.498,19.396c-0.691,1.517-1.5,2.991-1.96,4.604c-1.245,4.356,2.464,8.363,6.896,7.459
	c2.875-0.59,4.868-2.499,6.786-4.526c0.288-0.305,0.073-0.468-0.089-0.688c-0.597-0.818-1.218-1.625-1.765-2.476
	c-1.588-2.463-2.898-5.031-2.934-8.06c0-0.083-0.001-0.165,0-0.246c0.021-3.447,2.413-6.236,5.662-6.605
	c3.89-0.442,6.923,1.568,7.713,5.159c0.45,2.053,0.015,4.021-0.747,5.933c-0.912,2.286-2.282,4.298-3.763,6.243
	c-0.175,0.229-0.438,0.41-0.116,0.759c1.651,1.785,3.412,3.436,5.762,4.248c3.91,1.347,7.528-0.877,8.121-4.955
	c0.219-1.514-0.354-2.857-0.951-4.184C236.268,60.093,233.916,55.12,231.45,50.201z M227.676,57.664
	c-0.408-2.179-2.316-3.405-4.76-3.133c-2.091,0.232-3.458,1.89-3.447,4.241c0.025,0.406,0.033,0.862,0.135,1.326
	c0.601,2.715,2.085,4.966,3.693,7.161c0.286,0.39,0.435,0.24,0.658-0.057c1.201-1.604,2.29-3.274,3.048-5.137
	C227.576,60.655,227.963,59.193,227.676,57.664z"/>
<path d="M130.896,31.562c-0.554,3.435-1.244,6.845-1.925,10.258
	c-1.31,6.554-2.666,13.099-4.128,19.623c-1.314,5.853-2.662,11.696-4.189,17.499c-0.689,2.618-2.106,4.284-4.866,4.781
	c-1.502,0.272-2.954,0.821-4.43,1.242c-1.266,0.364-2.089-0.046-2.518-1.334c-0.275-0.828-0.475-1.684-0.666-2.54
	c-1.603-7.106-3.184-14.222-4.799-21.325c-0.382-1.679-0.874-3.335-1.316-5.001c-0.064-0.003-0.128-0.007-0.193-0.013
	c-0.264,1.055-0.543,2.105-0.789,3.162c-1.733,7.472-3.363,14.966-4.906,22.479c-0.104,0.506-0.229,1.019-0.42,1.499
	c-0.342,0.855-0.995,1.365-1.931,1.43c-1.842,0.127-3.667-0.093-5.475-0.4c-1.115-0.188-1.607-1.051-1.839-2.081
	c-0.699-3.1-1.404-6.198-2.092-9.3c-1.215-5.48-2.564-10.938-3.594-16.456c-1.279-6.862-2.652-13.717-3.418-20.668
	c-0.147-1.334-0.35-2.662-0.521-3.992c-0.088-0.681-0.142-1.361-0.025-2.048c0.235-1.36,0.917-2.049,2.281-2.171
	c1.671-0.149,3.342,0.009,5.003,0.161c1.298,0.12,1.896,1.098,2.289,2.203c0.451,1.268,0.735,2.579,0.992,3.899
	C88.84,39.809,90,47.199,91.587,54.508c0.021,0.098,0.078,0.188,0.196,0.456c0.496-2.215,0.938-4.257,1.413-6.291
	c1.233-5.284,2.316-10.6,3.425-15.91c0.176-0.842,0.501-1.622,0.904-2.372c0.571-1.061,1.375-1.801,2.64-2
	c1.269-0.2,2.519-0.524,3.784-0.76c1.477-0.275,2.146,0.052,2.67,1.498c0.455,1.257,0.751,2.573,1.109,3.866
	c1.833,6.6,3.49,13.242,4.938,19.938c0.108,0.504,0.188,1.016,0.296,1.596c0.388-0.405,0.277-0.875,0.375-1.278
	c0.826-3.41,1.481-6.852,2.103-10.305c0.704-3.91,1.339-7.829,1.936-11.757c0.091-0.591,0.26-1.18,0.47-1.741
	c0.486-1.299,1.091-1.767,2.488-1.696c3.096,0.155,6.162,0.599,9.188,1.262C130.775,29.292,131.136,30.082,130.896,31.562z
	 M34.012,28.867c-1.967,0.221-3.848,0.848-5.776,1.256c-1.402,0.296-2.148,1.259-2.364,2.709c-0.473,3.167-0.201,6.351-0.206,9.521
	c-0.009,6.028-0.014,12.055-0.208,18.082c-0.006,0.197,0.091,0.501-0.22,0.529c-0.217,0.021-0.272-0.238-0.337-0.411
	c-0.505-1.361-0.987-2.731-1.51-4.085c-1.948-5.029-3.95-10.037-5.848-15.086c-1.167-3.104-2.532-6.121-3.838-9.166
	c-0.545-1.271-1.487-1.961-2.827-2.24c-2.413-0.501-4.817-1.05-7.259-1.403c-1.134-0.166-1.795,0.254-2.065,1.367
	c-0.247,1.012-0.395,2.048-0.437,3.088c-0.161,3.997-0.28,7.996-0.46,11.99c-0.27,5.966-0.45,11.937-0.561,17.907
	c-0.017,0.877,0.095,1.754-0.045,2.627c-0.096,1.92-0.036,3.838,0.002,5.757c0.062,3.507,0.132,7.013,0.184,10.519
	c0.026,1.766,0.757,2.4,2.484,2.085c1.236-0.225,2.442-0.584,3.659-0.889c3.045-0.765,2.95-0.843,3.249-4.12
	c0.309-3.381,0.289-6.788,0.312-10.186c0.035-5.069,0.063-10.139,0.114-15.208c0.004-0.412-0.155-1.092,0.317-1.164
	c0.549-0.083,0.569,0.637,0.708,1.042c2.137,6.221,4.867,12.21,7.088,18.398c1.332,3.712,2.897,7.334,4.192,11.062
	c0.618,1.782,1.224,3.58,2.301,5.165c0.708,1.04,1.226,1.236,2.436,0.955c1.557-0.365,2.986-1.08,4.48-1.616
	c1.821-0.65,2.89-1.924,3.259-3.876c0.68-3.593,0.878-7.232,1.075-10.864c0.355-6.537,0.583-13.082,0.591-19.633
	c0.006-4.741,0.195-9.48,0.251-14.219c0.031-2.549-0.011-5.099-0.081-7.647C36.628,29.521,35.588,28.69,34.012,28.867z
	 M74.002,75.674c-0.363-1.395-1.353-2.017-2.666-2.202c-1.137-0.162-2.286-0.275-3.435-0.32c-2.987-0.118-5.942-0.576-8.922-0.781
	c-1.227-0.084-1.471-0.384-1.654-1.625c-0.236-1.605-0.174-3.228-0.226-4.843c-0.073-2.254-0.167-2.845,2.908-2.589
	c2.729,0.229,5.451,0.559,8.193,0.604c1.554,0.023,2.001-0.393,1.927-1.939c-0.136-2.803-0.855-5.517-1.401-8.253
	c-0.293-1.473-0.756-1.837-2.246-1.905c-2.654-0.121-5.312-0.206-7.968-0.26c-1.39-0.03-1.766-0.289-1.829-1.708
	c-0.09-2.025-0.101-4.057,0.064-6.08c0.087-1.086,0.698-1.643,1.805-1.76c1.066-0.113,2.133-0.134,3.202-0.12
	c1.865,0.023,3.728-0.05,5.58-0.261c1.292-0.147,1.915-1,1.737-2.291c-0.063-0.46-0.189-0.911-0.288-1.365
	c-0.423-1.954-0.797-3.92-1.286-5.858c-0.535-2.122-1.469-2.856-3.516-2.863c-4.768-0.016-9.536-0.013-14.303-0.005
	c-1.295,0.003-2.238,0.594-2.831,1.763c-0.567,1.112-0.655,2.32-0.69,3.52c-0.233,7.889-0.382,15.78-0.268,23.672
	c0,2.191,0.017,4.384-0.004,6.576c-0.045,5.04-0.131,10.082-0.148,15.121c-0.005,1.253-0.082,2.524,0.231,3.766
	c0.411,1.619,1.419,2.593,3.066,2.943c2.549,0.541,5.136,0.818,7.716,1.16c3.86,0.511,7.767,0.453,11.622,1.003
	c2.284,0.325,4.591,0.248,6.886,0.403c1.213,0.081,1.694-0.492,1.634-1.705c-0.014-0.303-0.055-0.603-0.111-0.897
	C76.074,82.886,74.949,79.302,74.002,75.674z"/>
</svg>
