<svg version="1.1" xmlns="http://www.w3.org/2000/svg" xmlns:xlink="http://www.w3.org/1999/xlink" x="0px" y="0px"
	 viewBox="0 0 22 22" style="enable-background:new 0 0 22 21.9;" xml:space="preserve">
<path d="M14.2,11.4c-0.2-0.2-0.2-0.5,0-0.7l7.5-7.5C21.9,3,22,2.7,22,2.5S21.9,2,21.7,1.8l-1.4-1.4C20,0.1,19.8,0,19.5,0
	S19,0.1,18.8,0.3l-7.5,7.5c-0.2,0.2-0.5,0.2-0.7,0L3.1,0.3C3,0.1,2.6,0,2.5,0C2.3,0,2,0.1,1.8,0.3L0.4,1.7C0.1,2,0,2.2,0,2.5
	C0,2.7,0.1,3,0.3,3.2l7.5,7.5c0.2,0.2,0.2,0.5,0,0.7l-7.5,7.5C0.1,19,0,19.3,0,19.5s0.1,0.5,0.3,0.7l1.4,1.4
	c0.2,0.2,0.5,0.3,0.7,0.3s0.5-0.1,0.7-0.3l7.5-7.5c0.2-0.2,0.5-0.2,0.7,0l7.5,7.5c0.2,0.2,0.5,0.3,0.7,0.3s0.5-0.1,0.7-0.3l1.4-1.4
	c0.2-0.2,0.3-0.5,0.3-0.7s-0.1-0.5-0.3-0.7L14.2,11.4z"/>
</svg>
