<svg xmlns="http://www.w3.org/2000/svg" xmlns:xlink="http://www.w3.org/1999/xlink" x="0px" y="0px"
	 viewBox="0 0 125 125" style="enable-background:new 0 0 125 125;" xml:space="preserve">
<path d="M62.5,0C28,0,0,28,0,62.5C0,97,28,125,62.5,125C97,125,125,97,125,62.5C125,28,97,0,62.5,0z M98.3,38
	c-7.4,11-14.8,21.9-22.2,32.8c-5.3,7.8-10.5,15.5-15.8,23.2c-3.2,4.8-7,5.1-11.1,1C42,88,34.8,80.8,27.6,73.6c-2.6-2.6-2.6-4.5,0-7
	c1.5-1.5,3-3,4.5-4.5c2.2-2.2,4.4-2.2,6.6,0c4.4,4.4,8.8,8.8,13.2,13.2c0.4,0.4,0.8,0.7,1.3,1.2c0.6-0.9,1.2-1.7,1.7-2.5
	c10-14.7,20-29.5,30-44.2c0.2-0.2,0.3-0.5,0.5-0.7c1.6-2.2,3.7-2.7,6-1.2c2,1.3,4,2.7,5.9,4C99.5,33.6,99.9,35.7,98.3,38z"/>
</svg>
