<svg version="1.1" xmlns="http://www.w3.org/2000/svg" xmlns:xlink="http://www.w3.org/1999/xlink" x="0px" y="0px"
	 viewBox="0 0 43 43" style="enable-background:new 0 0 43 43;" xml:space="preserve">
  <path d="M0,22.5c0-0.7,0-1.3,0-2c0.1-0.8,0.2-1.6,0.3-2.4C1.7,9.1,9.1,1.7,18.2,0.3c0.8-0.1,1.6-0.2,2.4-0.3
    c0.7,0,1.3,0,2,0c0.8,0.1,1.6,0.2,2.4,0.3c9.1,1.4,16.5,8.8,17.9,17.9c0.1,0.8,0.2,1.6,0.3,2.4c0,0.7,0,1.3,0,2
    c-0.1,0.8-0.2,1.6-0.3,2.4c-1.4,9.1-8.8,16.5-17.9,17.9c-0.8,0.1-1.6,0.2-2.4,0.3c-0.7,0-1.3,0-2,0c-0.8-0.1-1.6-0.2-2.4-0.3
    C9.1,41.3,1.7,33.9,0.3,24.8C0.2,24.1,0.1,23.3,0,22.5z M38.8,21.5c0.1-9.3-7.5-17-16.8-17.3C12.3,4,4.5,11.7,4.2,21
    C4,30.7,11.7,38.5,21,38.8C30.8,39,38.8,31.1,38.8,21.5z"/>
  <path d="M21.5,27.4c-3.9-3.8-7.8-7.7-11.6-11.5c2-2,4.1-4.1,6-6c3.8,3.8,7.7,7.7,11.6,11.6
    C25.6,23.3,23.6,25.4,21.5,27.4z"/>
  <path d="M29.5,23.5c0.9,0.1,2.2,7.3,1.8,7.7c-0.5,0.5-7.6-1-7.6-1.9C23.7,28.5,28.6,23.4,29.5,23.5z"/>
</svg>
