<svg version="1.1" xmlns="http://www.w3.org/2000/svg" xmlns:xlink="http://www.w3.org/1999/xlink" x="0px" y="0px"
	 viewBox="0 0 50 46" style="enable-background:new 0 0 50 46;" xml:space="preserve">
	<path d="M16.2,25.3c0-0.3-0.1-0.6-0.1-0.9c-0.1-0.5-0.5-0.9-1.1-0.9c-0.6,0.1-1,0.5-0.9,1.1c0,0.3,0.1,0.7,0.1,1
		c0.1,0.5,0.5,0.9,1,0.9c0,0,0.1,0,0.2,0C15.9,26.4,16.3,25.9,16.2,25.3z"/>
	<path d="M16.2,16.8c0.1,0.1,0.3,0.1,0.4,0.1c0.4,0,0.7-0.2,0.9-0.6c0.1-0.3,0.3-0.6,0.4-0.8c0.3-0.5,0.1-1.1-0.4-1.4
		c-0.5-0.3-1.1-0.1-1.4,0.4c-0.2,0.3-0.3,0.6-0.5,0.9C15.5,16,15.7,16.6,16.2,16.8z"/>
	<path d="M19.6,32.8c-0.4-0.4-1-0.5-1.4-0.1c-0.4,0.4-0.5,1-0.1,1.4c0.2,0.3,0.5,0.5,0.7,0.8c0.2,0.2,0.5,0.3,0.7,0.3
		c0.2,0,0.5-0.1,0.7-0.3c0.4-0.4,0.4-1,0.1-1.4C20,33.3,19.8,33.1,19.6,32.8z"/>
	<path d="M17.2,28.9c-0.2-0.5-0.8-0.8-1.3-0.5c-0.5,0.2-0.8,0.8-0.5,1.3c0.1,0.3,0.3,0.6,0.4,1c0.2,0.4,0.5,0.6,0.9,0.6
		c0.1,0,0.3,0,0.4-0.1c0.5-0.2,0.7-0.8,0.5-1.3C17.4,29.4,17.3,29.2,17.2,28.9z"/>
	<path d="M15.1,21.6c0,0,0.1,0,0.1,0c0.5,0,0.9-0.4,1-0.9c0-0.3,0.1-0.6,0.2-0.9c0.1-0.5-0.2-1.1-0.8-1.2
		c-0.5-0.1-1.1,0.2-1.2,0.8c-0.1,0.3-0.1,0.7-0.2,1C14.1,21,14.5,21.5,15.1,21.6z"/>
	<path d="M27.8,8c0.1,0,0.1,0,0.2,0c0.3-0.1,0.6-0.1,0.9-0.2c0.5-0.1,0.9-0.6,0.8-1.2c-0.1-0.5-0.6-0.9-1.2-0.8
		c-0.3,0.1-0.7,0.1-1,0.2c-0.5,0.1-0.9,0.7-0.8,1.2C26.9,7.7,27.3,8,27.8,8z"/>
	<path d="M46.2,18.4c0.1,0.3,0.2,0.6,0.2,0.9c0.1,0.5,0.5,0.8,1,0.8c0.1,0,0.2,0,0.2,0c0.5-0.1,0.9-0.7,0.7-1.2
		c-0.1-0.3-0.2-0.7-0.3-1c-0.2-0.5-0.7-0.8-1.3-0.7C46.3,17.3,46.1,17.9,46.2,18.4z"/>
	<path d="M44.7,15c0.2,0.3,0.5,0.5,0.9,0.5c0.2,0,0.4,0,0.5-0.1c0.5-0.3,0.6-0.9,0.3-1.4c-0.2-0.3-0.4-0.6-0.6-0.9
		c-0.3-0.5-0.9-0.6-1.4-0.3c-0.5,0.3-0.6,0.9-0.3,1.4C44.4,14.5,44.5,14.8,44.7,15z"/>
	<path d="M32.6,7.6c0.3,0,0.6,0.1,0.9,0.1c0,0,0.1,0,0.1,0c0.5,0,0.9-0.4,1-0.9c0.1-0.5-0.3-1-0.9-1.1
		c-0.3,0-0.7-0.1-1-0.1c-0.6,0-1,0.4-1.1,0.9C31.6,7.1,32,7.6,32.6,7.6z"/>
	<path d="M44.2,31.7c-0.2,0.3-0.4,0.5-0.5,0.7c-0.3,0.4-0.3,1.1,0.2,1.4c0.2,0.1,0.4,0.2,0.6,0.2c0.3,0,0.6-0.1,0.8-0.4
		c0.2-0.3,0.4-0.6,0.6-0.8c0.3-0.5,0.2-1.1-0.3-1.4C45.2,31.1,44.6,31.2,44.2,31.7z"/>
	<path d="M41.1,35.1c-0.2,0.2-0.5,0.4-0.7,0.6c-0.5,0.3-0.6,0.9-0.2,1.4c0.2,0.3,0.5,0.4,0.8,0.4c0.2,0,0.4-0.1,0.6-0.2
		c0.3-0.2,0.6-0.4,0.8-0.6c0.4-0.3,0.5-1,0.2-1.4C42.2,34.8,41.5,34.7,41.1,35.1z"/>
	<path d="M42.3,9.3c-0.4-0.3-1.1-0.3-1.4,0.2c-0.3,0.4-0.3,1.1,0.2,1.4c0.2,0.2,0.5,0.4,0.7,0.6
		c0.2,0.2,0.4,0.3,0.7,0.3c0.3,0,0.5-0.1,0.7-0.3c0.4-0.4,0.3-1-0.1-1.4C42.8,9.8,42.6,9.5,42.3,9.3z"/>
	<path d="M19.4,10.4c-0.3,0.2-0.5,0.5-0.7,0.7c-0.4,0.4-0.4,1,0.1,1.4c0.2,0.2,0.4,0.3,0.7,0.3c0.3,0,0.5-0.1,0.7-0.3
		c0.2-0.2,0.4-0.4,0.6-0.7c0.4-0.4,0.4-1,0-1.4C20.4,10.1,19.8,10,19.4,10.4z"/>
	<path d="M47.9,22c-0.6,0-1,0.5-1,1c0,0.3,0,0.6,0,0.9c0,0.6,0.4,1,0.9,1.1c0,0,0,0,0.1,0c0.5,0,1-0.4,1-0.9
		c0-0.3,0-0.7,0-1v-0.1C48.9,22.4,48.5,22,47.9,22z"/>
	<path d="M47.5,26.9c-0.5-0.2-1.1,0.1-1.3,0.7c-0.1,0.3-0.2,0.6-0.3,0.9c-0.2,0.5,0.1,1.1,0.6,1.3
		c0.1,0,0.2,0.1,0.4,0.1c0.4,0,0.8-0.2,0.9-0.6c0.1-0.3,0.2-0.7,0.3-1C48.3,27.6,48,27.1,47.5,26.9z"/>
	<path d="M28.1,38.1c-0.2,0-0.4-0.1-0.5-0.1C32.6,34.9,36,29.3,36,23c0-9.6-7.8-17.4-17.4-17.4S1.1,13.4,1.1,23
		s7.8,17.4,17.4,17.4c2.6,0,5.1-0.6,7.4-1.7c0,0.4,0.3,0.8,0.7,1c0.3,0.1,0.7,0.2,1,0.3c0.1,0,0.1,0,0.2,0c0.5,0,0.9-0.3,1-0.8
		C28.9,38.7,28.6,38.2,28.1,38.1z M3.1,23c0-8.5,6.9-15.4,15.4-15.4c1.4,0,2.7,0.2,4,0.5c-0.3,0.3-0.4,0.8-0.2,1.2
		c0.2,0.3,0.5,0.5,0.9,0.5c0.2,0,0.3,0,0.5-0.1c0.3-0.2,0.5-0.3,0.8-0.4c0.1-0.1,0.2-0.2,0.3-0.3C30.2,11.4,34,16.7,34,23
		c0,6.5-4,12-9.7,14.3c0-0.4-0.1-0.7-0.5-0.9c-0.3-0.2-0.5-0.3-0.8-0.5c-0.5-0.3-1.1-0.2-1.4,0.3c-0.3,0.5-0.2,1.1,0.3,1.4
		c0.2,0.1,0.4,0.2,0.6,0.3c-1.3,0.3-2.6,0.5-3.9,0.5C10,38.4,3.1,31.5,3.1,23z"/>
	<path d="M38.8,7.1c-0.3-0.1-0.6-0.3-1-0.4c-0.5-0.2-1.1,0.1-1.3,0.6c-0.2,0.5,0.1,1.1,0.6,1.3c0.3,0.1,0.6,0.2,0.9,0.4
		c0.1,0.1,0.3,0.1,0.4,0.1c0.4,0,0.7-0.2,0.9-0.6C39.5,8,39.3,7.4,38.8,7.1z"/>
	<path d="M32.6,38.4c-0.3,0-0.6,0-0.9,0c-0.6,0-1,0.5-1,1c0,0.5,0.5,1,1,1c0,0,0,0,0,0c0.4,0,0.7,0,1,0
		c0.6,0,1-0.5,0.9-1.1C33.7,38.8,33.2,38.4,32.6,38.4z"/>
	<path d="M37.1,37.4c-0.3,0.1-0.6,0.2-0.9,0.3c-0.5,0.2-0.8,0.7-0.6,1.3c0.1,0.4,0.5,0.7,1,0.7c0.1,0,0.2,0,0.3,0
		c0.3-0.1,0.7-0.2,1-0.4c0.5-0.2,0.8-0.8,0.6-1.3C38.2,37.4,37.6,37.2,37.1,37.4z"/>
</svg>
