<svg version="1.1" xmlns="http://www.w3.org/2000/svg" xmlns:xlink="http://www.w3.org/1999/xlink" x="0px" y="0px"
	 viewBox="0 0 50 46" xml:space="preserve">
	<path d="M41.5,5.5h-33c-0.6,0-1,0.4-1,1v33c0,0.6,0.4,1,1,1h33c0.6,0,1-0.4,1-1v-33C42.5,6,42,5.5,41.5,5.5z
		 M40.5,38.5h-31v-31h31V38.5z"/>
	<path d="M26.6,22.4c0.3,0,0.5-0.1,0.7-0.3l0.7-0.7c0.4-0.4,0.4-1,0-1.4s-1-0.4-1.4,0l-0.7,0.7c-0.4,0.4-0.4,1,0,1.4
		C26.1,22.3,26.4,22.4,26.6,22.4z"/>
	<path d="M23.1,23.5l-0.7,0.7c-0.4,0.4-0.4,1,0,1.4c0.2,0.2,0.5,0.3,0.7,0.3s0.5-0.1,0.7-0.3l0.7-0.7
		c0.4-0.4,0.4-1,0-1.4S23.5,23.1,23.1,23.5z"/>
	<path d="M19.6,27l-0.7,0.7c-0.4,0.4-0.4,1,0,1.4c0.2,0.2,0.5,0.3,0.7,0.3s0.5-0.1,0.7-0.3l0.7-0.7c0.4-0.4,0.4-1,0-1.4
		S20,26.6,19.6,27z"/>
	<path d="M33.7,15.3c0.3,0,0.5-0.1,0.7-0.3l0.7-0.7c0.4-0.4,0.4-1,0-1.4c-0.4-0.4-1-0.4-1.4,0L33,13.6
		c-0.4,0.4-0.4,1,0,1.4C33.2,15.2,33.5,15.3,33.7,15.3z"/>
	<path d="M30.2,18.8c0.3,0,0.5-0.1,0.7-0.3l0.7-0.7c0.4-0.4,0.4-1,0-1.4c-0.4-0.4-1-0.4-1.4,0l-0.7,0.7
		c-0.4,0.4-0.4,1,0,1.4C29.7,18.7,29.9,18.8,30.2,18.8z"/>
	<path d="M37.2,11.8c0.3,0,0.5-0.1,0.7-0.3l0.7-0.7c0.4-0.4,0.4-1,0-1.4s-1-0.4-1.4,0L36.5,10c-0.4,0.4-0.4,1,0,1.4
		C36.7,11.7,37,11.8,37.2,11.8z"/>
	<path d="M16,30.6l-0.7,0.7c-0.4,0.4-0.4,1,0,1.4c0.2,0.2,0.5,0.3,0.7,0.3s0.5-0.1,0.7-0.3l0.7-0.7c0.4-0.4,0.4-1,0-1.4
		S16.4,30.2,16,30.6z"/>
	<path d="M12.5,34.1l-0.7,0.7c-0.4,0.4-0.4,1,0,1.4c0.2,0.2,0.5,0.3,0.7,0.3s0.5-0.1,0.7-0.3l0.7-0.7
		c0.4-0.4,0.4-1,0-1.4S12.9,33.7,12.5,34.1z"/>
	<path d="M33.3,32.7c0.2,0.2,0.5,0.3,0.7,0.3s0.5-0.1,0.7-0.3c0.4-0.4,0.4-1,0-1.4L34,30.6c-0.4-0.4-1-0.4-1.4,0
		s-0.4,1,0,1.4L33.3,32.7z"/>
	<path d="M12,11.5c0.2,0.2,0.5,0.3,0.7,0.3s0.5-0.1,0.7-0.3c0.4-0.4,0.4-1,0-1.4l-0.7-0.7c-0.4-0.4-1-0.4-1.4,0
		s-0.4,1,0,1.4L12,11.5z"/>
	<path d="M36.8,36.2c0.2,0.2,0.5,0.3,0.7,0.3s0.5-0.1,0.7-0.3c0.4-0.4,0.4-1,0-1.4l-0.7-0.7c-0.4-0.4-1-0.4-1.4,0
		s-0.4,1,0,1.4L36.8,36.2z"/>
	<path d="M26.2,25.6c0.2,0.2,0.5,0.3,0.7,0.3s0.5-0.1,0.7-0.3c0.4-0.4,0.4-1,0-1.4l-0.7-0.7c-0.4-0.4-1-0.4-1.4,0
		s-0.4,1,0,1.4L26.2,25.6z"/>
	<path d="M22.7,22.1c0.2,0.2,0.5,0.3,0.7,0.3s0.5-0.1,0.7-0.3c0.4-0.4,0.4-1,0-1.4l-0.7-0.7c-0.4-0.4-1-0.4-1.4,0
		s-0.4,1,0,1.4L22.7,22.1z"/>
	<path d="M19.1,18.5c0.2,0.2,0.5,0.3,0.7,0.3s0.5-0.1,0.7-0.3c0.4-0.4,0.4-1,0-1.4l-0.7-0.7c-0.4-0.4-1-0.4-1.4,0
		c-0.4,0.4-0.4,1,0,1.4L19.1,18.5z"/>
	<path d="M15.6,15c0.2,0.2,0.5,0.3,0.7,0.3s0.5-0.1,0.7-0.3c0.4-0.4,0.4-1,0-1.4l-0.7-0.7c-0.4-0.4-1-0.4-1.4,0
		c-0.4,0.4-0.4,1,0,1.4L15.6,15z"/>
	<path d="M29.7,29.1c0.2,0.2,0.5,0.3,0.7,0.3s0.5-0.1,0.7-0.3c0.4-0.4,0.4-1,0-1.4L30.4,27c-0.4-0.4-1-0.4-1.4,0
		s-0.4,1,0,1.4L29.7,29.1z"/>
</svg>
