<svg version="1.1" id="Layer_1" xmlns="http://www.w3.org/2000/svg" xmlns:xlink="http://www.w3.org/1999/xlink" x="0px" y="0px"
	 viewBox="0 0 156.1 155.6" style="enable-background:new 0 0 156.1 155.6;" xml:space="preserve">
  <path d="M0,65.3c0-1.4,0-2.7,0-4.1c4.8-9,13.4-10,20.3-2.4c2.6,2.9,5.3,5.8,8,8.7c1.4,1.5,2.8,3,4.4,4.2
    c5.1,3.8,11.2,4.1,15.9,0.9c4.6-3.1,6.8-9.1,5.5-15.1c-0.2-1-0.5-2.1-0.7-3.2c16.5,0,32.7,0,49,0c-0.1,0.7-0.1,1.1-0.2,1.5
    c-1.9,7.9,0.2,14.2,5.9,17.3c5.8,3.1,12.8,1.5,18.2-4.4c3.6-3.9,7.1-7.8,10.7-11.7c4.1-4.5,12.9-4.3,16.8,0.4
    c2.1,2.6,2.8,5.5,1.5,8.7c-1.3,3.3-3.8,5.3-7.3,5.6c-1.9,0.2-3.7,0.2-5.8,0.3c-0.4,1.8-0.7,3.3-1,4.9
    c-4.3,23.8-8.6,47.6-12.9,71.4c-0.9,5.2-3.1,7.1-8.2,7.1c-28.1,0-56.3,0-84.4,0c-4.8,0-7.2-2-8.1-6.8c-2.3-12.1-4.4-24.2-6.7-36.3
    c-2.4-13.3-4.9-26.5-7.5-40.2C7.2,73.2,2.5,71.3,0,65.3z M49.3,137.2c0-16.1,0-31.8,0-47.5c-2.9,0-5.7,0-8.4,0c0,16,0,31.6,0,47.5
    C43.8,137.2,46.4,137.2,49.3,137.2z M106.6,89.6c0,16,0,31.7,0,47.5c3,0,5.7,0,8.4,0c0-16,0-31.6,0-47.5
    C112.1,89.6,109.4,89.6,106.6,89.6z M71,137.2c0-15.9,0-31.7,0-47.6c-2.9,0-5.5,0-8.3,0c0,15.9,0,31.7,0,47.6
    C65.5,137.2,68.1,137.2,71,137.2z M93.2,137.2c0-15.9,0-31.7,0-47.6c-2.8,0-5.5,0-8.3,0c0,15.9,0,31.7,0,47.6
    C87.7,137.2,90.2,137.2,93.2,137.2z"/>
  <path d="M74.5,46.9c-0.7-13.5-3.4-26.2-13.8-36.5c-1.2,1.6-2.1,2.8-3.2,4.2c9.7,8.2,10.4,18.3,7,29.5
    c-0.7,2.4-2,3.1-4.6,3.4c-8.6,1-15.5-1-20.4-8.6c-2-3-4.8-5.5-7.4-8.1c-1.6-1.6-2-3-1.4-5.3c2.7-9.4,10.9-14.7,20.5-12.5
    c2.6,0.6,3.9,0.1,5.2-2.1c2.3-3.6,5.3-6.7,9.4-8.3c0.4,0.3,0.7,0.7,1.1,1c-1.1,1.3-2.1,2.6-3,3.6c3.3,2.6,6.8,5.3,10,7.8
    c1-2.6,2.2-5.3,3-8c0.4-1.3,0.2-2.8-0.2-4.1c-1.1-3.2,1.2-2.7,2.8-2.7c7.2-0.1,14.3,0,21.5,0c3.1,0,6.2,0,9.3,0
    c2.2,0,4.1,0.3,2.1,3.2c-0.4,0.6-0.6,1.6-0.3,2.2c3.6,7.5,1.9,15.4,2.3,23.2c0.1,2.3,0,4.6,0,6.9c0,8.1-3.8,11.9-11.9,11.9
    c-7.3,0-14.5,0-22.2,0c0-8.3,0-16.3,0-24.2c0-1.1,0.2-2.2-0.1-3.2c-0.2-0.7-1.1-1.2-1.7-1.8c-0.5,0.7-1.5,1.4-1.4,2
    c0.2,2.1,1,4.2,1.1,6.3c0.2,6,0.3,12,0.3,18.1C78.5,46.8,77.4,48.1,74.5,46.9z"/>
  <path d="M116.1,68c-5.5-0.1-8.5-3.3-7.7-7.4c0.4-2.4,1.7-4.9,3.3-6.7c7.7-8.7,15.7-17.1,23.6-25.6
    c4.2-4.6,8.5-5.5,11.6-2.6c3.3,3.1,2.9,8.3-1.1,12.7c-8,8.7-15.9,17.3-24,25.8C119.9,66.1,117.3,67.3,116.1,68z"/>
  <path d="M7.2,32c0-6.5,4.7-9.5,9.7-7c1.3,0.7,2.5,1.7,3.5,2.7c8.1,8.7,16.1,17.5,24,26.4c1.3,1.4,2.7,3.5,2.7,5.2
    c-0.1,2.6-0.8,5.7-2.4,7.5c-2.1,2.4-5.7,1.9-7.7-0.2C27.2,56.4,17.8,45.9,8.3,35.3C7.4,34.3,7.4,32.6,7.2,32z"/>
</svg>
