<svg version="1.1" xmlns="http://www.w3.org/2000/svg" xmlns:xlink="http://www.w3.org/1999/xlink" x="0px" y="0px" viewBox="0 0 149.68 46.094" enable-background="new 0 0 149.68 46.094" xml:space="preserve">
<path d="M72.814,45.287c-3.436,0-5.142-2.379-5.142-5.298c0-1.48,0.696-3.008,2.335-4.062c-0.035-0.069-0.065-0.129-0.098-0.189
	c0.886,1.641,2.251,3.423,4.093,5.42c1.146,1.237,2.128,2.157,2.998,2.85C75.842,44.757,74.593,45.287,72.814,45.287 M72.77,28.227
	c1.233,0.045,1.75,1.01,1.75,1.998c0,1.098-0.045,2.666-2.863,4.168c-0.625-1.148-1.042-2.314-1.042-3.405
	C70.614,29.192,71.332,28.272,72.77,28.227 M85.607,44.701c-0.565,0.28-1.288,0.427-2.002,0.446l-0.001-0.006
	c-1.834-0.062-3.046-0.609-4.562-1.972c1.702-1.767,2.529-3.928,2.997-4.751c0.741-1.279,1.235-1.549,2.739-1.885
	c0.357-0.092,0.269-0.54-0.045-0.473c-0.383,0.067-1.998,0.225-2.694,0.246c-0.583,0.023-1.998,0.023-2.896,0.091
	c-0.382,0.022-0.359,0.472,0.022,0.472c1.706-0.023,1.752,0.27,1.481,1.639c-0.245,1.229-1.112,2.972-2.096,4.205
	c-0.865-0.836-1.852-1.919-3.113-3.308c-1.139-1.267-2.51-2.86-3.498-4.513c3.432-1.684,4.061-3.12,4.061-4.602
	c0-1.458-1.213-2.716-3.232-2.716c-2.335,0-4.063,1.976-4.063,4.04c0,1.188,0.343,2.434,1.021,3.778
	c-2.442,1.233-4.434,2.916-4.434,5.427c0,3.365,2.919,5.273,7.16,5.273c2.139,0,3.832-0.662,5.175-1.615
	c2.129,1.52,3.535,1.579,4.962,1.581c0.212,0,0.413-0.004,0.606-0.013c1.021-0.007,1.837-0.311,2.694-0.654
	C86.426,45.177,86.021,44.493,85.607,44.701 M32.246,35.383v5.838h1.43V33.08h-1.521l-2.479,3.851l-2.478-3.851h-1.522v8.142h1.408
	v-5.815l2.546,3.815h0.046L32.246,35.383z M41.045,34.732l-1.396,3.256h2.802L41.045,34.732z M45.312,41.22H43.8l-0.825-1.966h-3.85
	l-0.836,1.966h-1.467l3.582-8.198h1.326L45.312,41.22z M49.97,33.081h-1.431v8.14h1.431V33.081z M59.578,38.709l-4.361-5.629h-1.326
	v8.14h1.407v-5.792l4.489,5.792h1.197v-8.14h-1.406V38.709z M92.019,39.509l-2.454-6.257h-1.582l3.384,8.199h1.257l3.385-8.199
	H94.46L92.019,39.509z M100.664,33.252h-1.43v8.141h1.43V33.252z M110.271,38.882l-4.359-5.63h-1.326v8.141h1.406v-5.791
	l4.489,5.791h1.198v-8.141h-1.408V38.882z M121.559,33.252h-6.036v8.141h6.095v-1.278h-4.665v-2.187h4.083v-1.279h-4.083v-2.116
	h4.606V33.252z M104.714,9.412l-1.818,0.083l-0.042,0.701l0.995-0.046c0.972,0,1.653,0.08,2.046,0.481
	c0.443,0.445,0.52,1.294,0.5,2.514l-0.044,1.317c0,1.023-0.058,1.507-0.413,1.854c-0.635,0.662-2.242,1.01-3.503,1.01
	c-3.827,0-7.897-2.992-7.897-8.537c0-5.164,4.283-7.57,7.176-7.57c2.629,0,4.311,1.573,4.907,2.245
	c0.04,0.05,0.114,0.158,0.202,0.29c0.689,1.006,0.921,1.208,1.072,1.208c0.096,0,0.174-0.026,0.24-0.089
	c0.123-0.134,0.121-0.365,0.117-0.567l-0.36-3.876l-0.546-0.045l-0.038,0.061c-0.316,0.505-0.618,0.56-0.733,0.56
	c-0.117,0-0.379-0.063-0.729-0.177c-1.682-0.438-3-0.527-3.809-0.527c-5.785,0-10.492,4.146-10.492,9.242
	c0,5.203,4.2,8.838,10.214,8.838c2.532,0,5.291-0.513,7.899-1.037l0.096-0.02v-0.481l-0.05-0.036
	c-0.684-0.49-0.682-1.777-0.679-2.914l0.047-1.711c0.042-1.648,0.104-2.047,1.448-2.312l0.095-0.02V9.233l-0.126,0.01
	C109.318,9.327,107.718,9.412,104.714,9.412 M86.498,0.387c-0.247-0.02-0.582-0.059-0.883-0.093l-0.157-0.019
	c-0.226-0.029-0.512-0.064-0.594-0.064c-0.28,0-0.817,0.035-1.129,0.074l-0.097,0.012l-0.043,0.658l0.117,0.007
	c2.924,0.183,3.195,0.433,3.195,8.621c0,0.354-0.019,1.028-0.039,1.741l-0.016,0.646c-0.018,0.646-0.034,1.257-0.034,1.572
	l-0.634-0.608c-0.631-0.607-1.495-1.438-1.781-1.682l-2.311-2.151c-0.578-0.529-5.73-5.259-8.4-8.531l-0.039-0.047l-0.06,0.004
	c-0.683,0.033-1.012,0.033-1.89,0.033c-0.226,0-0.452-0.01-0.679-0.019c-0.225-0.01-0.454-0.019-0.679-0.019
	c-0.392-0.043-0.776-0.08-1.189-0.088l-0.126-0.004l0.047,0.746l0.089,0.017c2.58,0.483,3.078,1.01,2.994,5.972l-0.045,3.123
	c0,1.157-0.137,4.703-0.275,5.717c-0.131,1.124-0.648,1.278-1.314,1.363c-0.85,0.137-1.132,0.227-1.132,0.484
	c0,0.242,0.189,0.394,0.496,0.394c0.011,0,0.051-0.002,0.114-0.007l0.207-0.012c1.131-0.076,1.816-0.113,2.038-0.113l1.315-0.041
	c1.275-0.047,2.786,0.115,3.173,0.16l0.132,0.016V17.5l-0.098-0.016c-3.494-0.608-3.486-1.131-3.438-4.031l0.09-7.432l0.05-1.412
	l0.001,0.002c0.631,0.667,2.173,2.133,3,2.92l0.157,0.148c0.608,0.58,0.892,0.85,0.993,0.951l-0.006,0.012l2.611,2.346
	c4.396,3.968,6.002,5.682,6.875,7.336l0.031,0.059l0.855,0.036l-0.006-0.13c-0.084-1.534-0.084-5.205-0.084-6.771
	c0-2.295,0.18-8.053,0.32-8.793c0.17-1.342,1.359-1.502,2.239-1.506h0.117v-0.66h-0.278C88.179,0.524,87.852,0.518,86.498,0.387
	 M127.727,13.844c-0.909,2.351-2.814,3.354-6.371,3.354c-1.635,0-2.309-0.217-3.225-0.57l-0.002-0.003
	c-0.091-0.533-0.182-1.247-0.228-3.563l-0.044-3.438h0.003c1.227-0.172,2.369-0.172,2.856-0.172c3.479,0,3.934,0.253,4.434,2.457
	L125.172,12h0.586l-0.002-0.119c-0.042-2.251-0.039-2.838,0.089-5.162l0.008-0.125h-0.681l-0.024,0.087
	c-0.324,1.187-0.616,1.578-1.248,1.671c-1.209,0.156-2.557,0.235-4.007,0.235c-0.956,0-1.697-0.035-1.897-0.058l-0.003-0.004
	c-0.041-0.537-0.091-1.408-0.091-2.509c0-1.173,0.099-3.024,0.315-4.313l0.002-0.002c0.942-0.18,2.846-0.35,3.635-0.35
	c2.08,0,3.262,0.266,3.83,0.864c0.469,0.492,0.479,1.203,0.447,1.889l-0.004,0.108l0.716,0.094l0.011-0.122
	c0.021-0.236,0.092-0.657,0.158-1.065l0.057-0.334c0.044-0.26,0.084-0.484,0.097-0.592c0.127-0.849,0.138-1.279,0.14-1.682
	l0.002-0.127l-0.127,0.008c-2.695,0.155-6.771,0.168-7.957,0.168c-1.349,0-4.684-0.074-6.146-0.123l-0.122-0.004v0.613l0.099,0.017
	c1.439,0.241,1.631,0.297,1.764,0.728c0.165,0.43,0.361,2.084,0.361,7.53c0,2.331-0.18,6.007-0.413,7.255
	c-0.127,0.685-0.933,0.913-2.104,1.047l-0.119,0.014l0.092,0.697l0.113-0.012c2.432-0.248,5.331-0.248,7.062-0.248
	c0.484,0,1.819,0.019,3.231,0.037l0.232,0.004c1.41,0.02,3.106,0.047,3.635,0.062l0.072-0.004l0.035-0.057
	c0.365-0.578,0.918-1.453,1.314-4.188l0.019-0.126l-0.589-0.04L127.727,13.844z M137.131,8.759c-0.548,0-1.375,0-1.9-0.091h-0.002
	l0.039-4.266c0.047-2.977,0.053-3.287,1.905-3.287c3.151,0,4.327,2.523,4.327,4.112C141.5,7.472,139.908,8.759,137.131,8.759
	 M148.348,18.254l-0.022-0.028l-0.036-0.011c-0.026-0.008-0.114-0.022-0.229-0.043l-0.191-0.033
	c-0.263-0.046-0.624-0.111-0.726-0.146c-2.44-0.762-4.291-3.882-6.829-8.554l-0.003-0.011l0.039-0.009
	c1.935-0.489,4.015-2.08,4.015-4.413c0-2.768-2.637-4.857-6.135-4.857c-0.304,0-1.08,0.066-2.062,0.154l-0.672,0.057
	c-0.933,0.078-1.739,0.146-2.083,0.146c-0.518,0-1.105,0-1.631-0.044c-0.517,0-0.99-0.035-1.557-0.081l-0.119-0.009l-0.047,0.746
	l0.117,0.008c2.123,0.135,2.355,0.33,2.355,5.688v4.648c0.008,2.244-0.018,4.611-0.264,5.15c-0.365,0.693-1.724,1.033-2.132,1.121
	l-0.118,0.025l0.127,0.526l0.102-0.007c0.677-0.052,3.23-0.213,3.83-0.213c1.096,0,2.67,0.119,3.741,0.283l0.145,0.021l-0.039-0.657
	l-0.079-0.024c-1.033-0.307-2.151-0.665-2.359-1.035c-0.315-0.633-0.31-2.743-0.305-4.005l0.001-2.965h0.002
	c1.269,0.087,1.591,0.089,2.298,0.091l0.221-0.033h0.002l0.001,0.001c0.744,1.538,2.466,4.251,3.446,5.558
	c1.162,1.55,3.18,3.398,6.188,3.398c0.882,0,1.062-0.111,1.062-0.278C148.402,18.338,148.373,18.285,148.348,18.254 M61.212,0.561
	c-0.895,0-1.492-0.026-2.005-0.054c-0.318-0.017-0.584-0.03-0.854-0.03h-0.002l-1.584-0.043v0.744l0.112,0.004
	c2.147,0.088,2.714,0.484,2.968,1.143c0.34,0.812,0.414,5.928,0.414,7.83v0.328c0.003,1.684,0.01,5.188-0.496,6.051
	c-0.206,0.355-0.913,0.818-3.116,1.004l-0.108,0.01v0.612l0.119-0.002c0.232-0.004,0.661-0.019,1.111-0.035
	c0.561-0.024,1.24-0.048,1.489-0.048h2.638c0.195,0,0.659,0.018,1.418,0.053l0.168,0.006c0.842,0.037,1.795,0.08,2.336,0.08
	c0.068,0,0.125,0,0.18-0.004l0.115-0.008l-0.04-0.703h-0.111c-1.751,0-2.535-0.034-2.796-0.871c-0.121-0.412-0.183-2.13-0.183-5.108
	c0-7.03,0.044-8.892,0.455-9.591c0.378-0.613,1.371-0.74,2.136-0.74c0.215,0,0.404,0.012,0.554,0.021l0.126,0.01V0.477h-1.994
	C63.598,0.52,62.816,0.561,61.212,0.561 M33.355,13.844c-0.914,2.35-2.82,3.354-6.375,3.354c-1.645,0-2.316-0.217-3.229-0.576
	c-0.09-0.531-0.181-1.246-0.225-3.561l-0.043-3.438c1.23-0.172,2.371-0.172,2.859-0.172c3.473,0,3.928,0.253,4.43,2.457L30.794,12
	h0.594l-0.003-0.119c-0.042-2.232-0.039-2.817,0.086-5.164l0.005-0.125h-0.683L30.769,6.68c-0.32,1.188-0.612,1.579-1.247,1.674
	c-1.515,0.194-3.012,0.234-4.002,0.234c-1.028,0-1.732-0.041-1.9-0.061V8.526c-0.041-0.531-0.092-1.398-0.092-2.507
	c0-1.185,0.1-3.039,0.314-4.315h0.004c0.937-0.182,2.841-0.352,3.633-0.352c2.082,0,3.264,0.266,3.832,0.861
	c0.469,0.492,0.479,1.176,0.447,1.892l-0.006,0.108l0.718,0.094l0.011-0.121c0.029-0.311,0.135-0.938,0.207-1.354
	c0.048-0.282,0.088-0.522,0.104-0.641c0.127-0.839,0.139-1.273,0.139-1.682V0.385l-0.125,0.008
	c-2.653,0.154-6.764,0.166-7.961,0.166c-1.479,0-4.868-0.08-6.145-0.121l-0.123-0.004v0.613l0.099,0.017
	c1.438,0.241,1.63,0.297,1.769,0.732c0.165,0.429,0.361,2.081,0.361,7.525c0,2.333-0.18,6.011-0.41,7.254
	c-0.117,0.604-0.688,0.888-2.105,1.048l-0.119,0.014l0.092,0.697l0.113-0.012c2.429-0.248,5.327-0.248,7.06-0.248
	c0.46,0,1.757,0.015,3.468,0.041c1.492,0.021,3.123,0.046,3.621,0.068l0.067,0.002l0.038-0.057c0.368-0.572,0.926-1.438,1.326-4.197
	l0.018-0.125l-0.586-0.045L33.355,13.844z M43.923,8.756c-0.546,0-1.372,0-1.902-0.088l0.04-4.266
	c0.045-2.977,0.048-3.287,1.902-3.287c3.155,0,4.332,2.523,4.332,4.112C48.295,7.471,46.701,8.756,43.923,8.756 M55.129,18.229
	l-0.041-0.014c-0.027-0.008-0.098-0.02-0.193-0.037c-0.071-0.013-0.158-0.027-0.25-0.045c-0.393-0.066-0.63-0.111-0.707-0.138
	c-2.443-0.762-4.292-3.882-6.831-8.557l-0.002-0.011l0.04-0.009c1.936-0.491,4.02-2.081,4.02-4.413c0-2.768-2.639-4.857-6.139-4.857
	c-0.281,0-0.961,0.059-1.748,0.124l-0.92,0.081c-1.004,0.085-1.796,0.151-2.149,0.151c-0.519,0-1.105,0-1.628-0.044
	c-0.555,0-1.066-0.042-1.563-0.081l-0.12-0.009l-0.045,0.746l0.118,0.008c2.126,0.133,2.358,0.328,2.358,5.69v4.234l0.002,0.417
	c0.004,1.476,0.013,4.544-0.268,5.143c-0.366,0.696-1.727,1.035-2.134,1.123l-0.12,0.025l0.133,0.529l0.101-0.008
	c0.761-0.059,3.259-0.217,3.832-0.217c1.092,0,2.663,0.121,3.737,0.287l0.145,0.022l-0.042-0.66l-0.079-0.024
	c-0.85-0.255-2.135-0.644-2.348-1.036c-0.32-0.63-0.315-2.742-0.312-4.005l0.002-2.965l0.002,0.001
	c1.267,0.087,1.592,0.089,2.301,0.091l0.224-0.033l0.001,0.001c0.743,1.538,2.463,4.251,3.448,5.558
	c1.157,1.549,3.171,3.396,6.182,3.396c0.88,0,1.062-0.109,1.062-0.276c0-0.063-0.015-0.114-0.042-0.156L55.129,18.229z
	 M7.488,17.268c-0.66,0-2.031,0-2.08-0.619c-0.09-0.481-0.099-2.822-0.099-3.805c0-1.758,0.025-3.51,0.049-4.043h0.001
	C5.666,8.78,5.983,8.77,6.303,8.77c1.49,0,3.535,0.256,4.82,1.478c0.795,0.756,1.197,1.784,1.197,3.058
	C12.32,16.231,9.719,17.268,7.488,17.268 M5.545,1.399c0.053-0.256,0.121-0.572,1.244-0.572c2.355,0,3.764,1.898,3.764,3.735
	c0,2.112-1.547,3.372-4.135,3.372L5.501,7.86L5.406,7.833V5.467L5.404,5.231C5.397,4.483,5.38,2.208,5.545,1.399 M9.53,8.206
	L9.5,8.081c2.625-0.703,3.957-1.992,3.957-3.832C13.457,4.075,13.392,0,7.772,0L5.679,0.088L3.489,0.229L2.182,0.182L1.947,0.16
	c-0.76-0.079-1.137-0.12-1.318-0.14L0.478,0.002l0.021,0.15c0.016,0.111,0.03,0.274,0.041,0.48l0.006,0.098l0.096,0.014
	C1.396,0.85,2.131,1.04,2.406,1.708c0.181,0.417,0.281,3.13,0.281,7.634c0,1.73-0.141,5.373-0.28,6.588
	c-0.097,0.766-0.186,1.488-2.294,1.685L0,17.625l0.035,0.684l0.124-0.012c1.303-0.133,2.706-0.201,4.164-0.201l3.259,0.09
	c1.438,0,2.684-0.086,4.085-0.5c2.184-0.627,3.651-2.388,3.651-4.381C15.318,9.319,10.502,8.358,9.53,8.206 M122.873,40.409h0.456
	v-0.224h-1.168v0.224h0.458v1.029h0.254V40.409z M124.784,40.575v0.863h0.254v-1.254h-0.269l-0.439,0.65l-0.438-0.65h-0.27v1.254
	h0.248v-0.859l0.45,0.645h0.009L124.784,40.575z"/>
<path d="M25.581,29.436h35.404v0.494H25.581V29.436z M25.581,45.314h35.404V44.82H25.581V45.314z M88.542,29.924
	h32.915v-0.481H88.542V29.924z M88.542,45.307h32.915v-0.48H88.542V45.307z M10.892,8.537c2.036-0.739,3.093-1.921,3.093-3.54
	c0-0.093-0.027-1.318-0.925-2.43c1.634,1.22,1.673,3.029,1.673,3.145c0,1.467-0.859,2.578-2.535,3.326
	C11.744,8.823,11.297,8.661,10.892,8.537 M14.838,11.303c0.984,0.768,1.757,1.871,1.757,3.463c0,1.994-1.467,3.754-3.652,4.383
	c-1.399,0.414-2.646,0.498-4.083,0.498L5.6,19.559c-1.459,0-2.861,0.066-4.164,0.2l-0.124,0.013l-0.035-0.686l0.113-0.01
	c0.361-0.033,0.646-0.088,0.899-0.15c0.83-0.049,1.682-0.081,2.562-0.081l3.259,0.089c1.438,0,2.683-0.086,4.083-0.499
	c2.186-0.628,3.653-2.39,3.653-4.382C15.847,12.899,15.436,12.003,14.838,11.303 M6.625,17.245c-0.252-0.02-0.505-0.053-0.72-0.117
	c-0.06-0.787-0.068-2.677-0.068-3.535c0-1.758,0.026-3.508,0.05-4.043h0.002C6.195,9.529,6.512,9.518,6.83,9.518
	c1.49,0,3.535,0.257,4.822,1.479c0.012,0.012,0.021,0.025,0.031,0.037c0.043,0.072,0.077,0.146,0.115,0.221
	c-1.265-0.822-2.943-1.022-4.221-1.022c-0.317,0-0.635,0.011-0.941,0.032H6.635c-0.023,0.533-0.047,2.284-0.047,4.041
	C6.588,14.995,6.591,16.333,6.625,17.245 M5.932,5.979C5.927,5.231,5.908,2.956,6.072,2.147c0.053-0.255,0.122-0.572,1.244-0.572
	c1.135,0,2.038,0.447,2.678,1.11c0.035,0.062,0.074,0.124,0.105,0.188C9.538,2.514,8.86,2.288,8.064,2.288
	c-1.123,0-1.189,0.318-1.243,0.573C6.656,3.669,6.676,5.945,6.681,6.693l0.002,0.235v0.986c-0.108,0.004-0.206,0.02-0.315,0.02
	L5.934,7.899V6.215L5.932,5.979z M33.034,5.567c0.011-0.259,0.009-0.509-0.011-0.752c0.036-0.309,0.117-0.789,0.192-1.234
	c0.049-0.281,0.087-0.523,0.104-0.641c0.066-0.449,0.1-0.777,0.117-1.053c0.223-0.01,0.438-0.02,0.645-0.033l0.125-0.006v0.125
	c-0.002,0.408-0.013,0.842-0.14,1.681c-0.016,0.118-0.056,0.358-0.104,0.641c-0.07,0.415-0.179,1.043-0.206,1.353L33.746,5.77
	l-0.718-0.096L33.034,5.567z M24.201,16.809c-0.061-0.539-0.115-1.369-0.145-3l-0.045-3.438c1.231-0.17,2.373-0.17,2.86-0.17
	c1.894,0,2.888,0.077,3.483,0.504c0.061,0.133,0.116,0.279,0.168,0.441c-0.619-0.188-1.518-0.232-2.904-0.232
	c-0.487,0-1.628,0-2.859,0.17l0.045,3.438c0.022,1.19,0.057,1.952,0.098,2.489C24.656,16.956,24.428,16.887,24.201,16.809
	 M31.914,12.629c-0.037-1.867-0.04-2.593,0.033-4.15c0.032-0.106,0.065-0.215,0.098-0.337l0.025-0.088h0.683l-0.006,0.125
	c-0.126,2.347-0.128,2.931-0.085,5.163l0.002,0.121H32.07l-0.021-0.093c-0.052-0.229-0.104-0.433-0.159-0.622h0.025L31.914,12.629z
	 M20.55,2.63c-0.171-0.031-0.366-0.065-0.599-0.104L19.854,2.51V1.926c0.268,0.051,0.463,0.096,0.613,0.145
	C20.494,2.211,20.521,2.39,20.55,2.63 M24.823,8.583c-0.282-0.004-0.523-0.013-0.72-0.021c-0.025-0.487-0.047-1.085-0.047-1.794
	c0-1.186,0.097-3.039,0.312-4.315h0.005C25.311,2.271,27.215,2.1,28.007,2.1c1.798,0,2.923,0.199,3.562,0.638
	c0.048,0.131,0.087,0.267,0.109,0.41c-0.668-0.226-1.614-0.335-2.923-0.335c-0.793,0-2.696,0.171-3.633,0.354h-0.004
	c-0.217,1.275-0.314,3.129-0.314,4.314C24.805,7.886,24.812,8.25,24.823,8.583 M1.818,2.095C1.805,1.889,1.79,1.727,1.775,1.616
	L1.774,1.61c0.229,0.059,0.439,0.142,0.624,0.252c0.022,0.107,0.043,0.257,0.062,0.446C2.286,2.264,2.104,2.232,1.919,2.207
	L1.822,2.193L1.818,2.095 M129.035,15.226l0.588,0.04l-0.018,0.126c-0.398,2.735-0.949,3.608-1.315,4.187l-0.035,0.057l-0.071,0.004
	c-0.529-0.015-2.225-0.041-3.637-0.062l-0.236-0.003c-1.41-0.019-2.744-0.036-3.227-0.036c-1.731,0-4.629,0-7.061,0.247
	l-0.114,0.013l-0.091-0.697l0.119-0.014c0.31-0.036,0.592-0.078,0.845-0.135c2.041-0.127,4.169-0.129,5.553-0.129
	c0.484,0,1.817,0.02,3.229,0.039l0.234,0.002c1.412,0.021,3.107,0.047,3.637,0.062l0.07-0.003l0.036-0.058
	c0.288-0.455,0.69-1.111,1.043-2.699c0.157-0.265,0.298-0.549,0.418-0.86L129.035,15.226z M139.2,19.174l0.04,0.658l-0.145-0.021
	c-1.07-0.164-2.645-0.283-3.742-0.283c-0.6,0-3.151,0.16-3.83,0.212l-0.1,0.007l-0.129-0.526l0.119-0.025
	c0.178-0.038,0.538-0.128,0.916-0.271c0.918-0.057,1.926-0.109,2.275-0.109c1.097,0,2.671,0.118,3.742,0.281l0.145,0.021
	l-0.01-0.164c0.211,0.067,0.427,0.133,0.64,0.197L139.2,19.174z M34.663,15.224l0.586,0.045l-0.017,0.124
	c-0.4,2.762-0.959,3.627-1.328,4.197l-0.037,0.058L33.8,19.646c-0.497-0.022-2.128-0.048-3.62-0.069
	c-1.713-0.025-3.009-0.039-3.469-0.039c-1.732,0-4.632,0-7.059,0.247l-0.113,0.013l-0.092-0.699l0.119-0.012
	c0.326-0.037,0.603-0.082,0.845-0.135c2.038-0.127,4.167-0.129,5.551-0.129c0.46,0,1.758,0.015,3.47,0.041
	c1.49,0.021,3.123,0.046,3.619,0.068l0.068,0.003l0.037-0.058c0.291-0.451,0.7-1.103,1.057-2.711
	c0.156-0.266,0.297-0.549,0.419-0.86L34.663,15.224z M149.624,19.717c0.025,0.029,0.056,0.083,0.056,0.164
	c0,0.167-0.182,0.278-1.063,0.278c-2.435,0-4.21-1.212-5.418-2.496c1.159,0.984,2.697,1.782,4.669,1.782
	c0.196,0,0.352-0.006,0.484-0.016c0.024,0.008,0.045,0.019,0.068,0.025c0.103,0.034,0.464,0.1,0.726,0.146l0.19,0.033
	c0.115,0.02,0.203,0.035,0.23,0.043l0.035,0.01L149.624,19.717 M90.439,2c0.319,0.007,0.682,0.014,1.14,0.021h0.278V2.68H91.74
	c-0.879,0.006-2.068,0.166-2.238,1.508c-0.143,0.74-0.32,6.498-0.32,8.791c0,1.568,0,5.238,0.083,6.772l0.007,0.13l-0.855-0.035
	l-0.033-0.061c-0.11-0.211-0.234-0.422-0.373-0.639l0.514,0.021l-0.008-0.131c-0.082-1.533-0.082-5.203-0.082-6.771
	c0-2.293,0.179-8.053,0.32-8.792C88.889,2.4,89.679,2.087,90.439,2 M56.43,19.725c0.027,0.041,0.043,0.092,0.043,0.156
	c0,0.167-0.182,0.277-1.063,0.277c-2.433,0-4.204-1.209-5.409-2.49c1.155,0.98,2.69,1.775,4.662,1.775
	c0.191,0,0.345-0.006,0.475-0.016c0.026,0.009,0.052,0.021,0.078,0.029c0.076,0.025,0.312,0.072,0.708,0.139
	c0.091,0.018,0.178,0.031,0.249,0.045c0.095,0.017,0.166,0.029,0.192,0.037l0.041,0.012L56.43,19.725z M45.99,19.174l0.043,0.66
	l-0.146-0.022c-1.074-0.165-2.646-0.286-3.737-0.286c-0.574,0-3.071,0.156-3.832,0.216l-0.1,0.007l-0.133-0.528l0.119-0.025
	c0.178-0.038,0.538-0.128,0.917-0.271c0.928-0.057,1.94-0.112,2.28-0.112c1.092,0,2.662,0.121,3.736,0.286l0.146,0.023l-0.012-0.168
	c0.224,0.07,0.444,0.139,0.64,0.197L45.99,19.174z M66.784,1.94h0.748v0.74l-0.125-0.008c-0.15-0.01-0.339-0.023-0.554-0.023
	c-0.766,0-1.758,0.129-2.137,0.74c-0.41,0.7-0.455,2.561-0.455,9.593c0,2.16,0.032,3.649,0.097,4.464
	c-0.275-0.031-0.5-0.084-0.683-0.168c-0.107-0.526-0.162-2.201-0.162-5.01c0-7.031,0.043-8.892,0.454-9.592
	c0.354-0.57,1.235-0.719,1.974-0.736h0.316c0.149,0.004,0.289,0.012,0.4,0.018l0.126,0.009V1.94z M77.398,18.825
	c0.203,0.041,0.419,0.081,0.651,0.122l0.098,0.017v0.748l-0.13-0.015c-0.389-0.044-1.899-0.21-3.175-0.159l-1.315,0.039
	c-0.223,0-0.906,0.039-2.037,0.113l-0.207,0.014c-0.064,0.004-0.105,0.008-0.115,0.008c-0.307,0-0.496-0.152-0.496-0.396
	c0-0.182,0.154-0.278,0.537-0.369c0.842-0.053,1.382-0.082,1.569-0.082l1.317-0.041c1.273-0.05,2.785,0.115,3.172,0.16l0.131,0.016
	V18.825 M67.352,18.961l0.041,0.701l-0.116,0.01c-0.054,0.002-0.11,0.002-0.179,0.002c-0.541,0-1.494-0.041-2.334-0.078l-0.17-0.008
	c-0.759-0.035-1.224-0.051-1.42-0.051h-2.635c-0.252,0-0.93,0.023-1.49,0.047c-0.449,0.018-0.88,0.031-1.111,0.035l-0.121,0.002
	v-0.612L57.926,19c0.488-0.041,0.893-0.098,1.246-0.163c0.267-0.008,0.494-0.015,0.617-0.015h2.637c0.195,0,0.659,0.018,1.419,0.053
	l0.169,0.007c0.841,0.036,1.795,0.079,2.335,0.079c0.068,0,0.125,0,0.179-0.004l0.023-0.001c0.213,0.003,0.438,0.005,0.69,0.005
	H67.352z M110.456,10.783c0.499-0.024,0.931-0.052,1.31-0.079l0.127-0.01v0.618l-0.096,0.02c-1.345,0.265-1.406,0.664-1.447,2.312
	l-0.049,1.71c-0.002,1.138-0.004,2.426,0.68,2.916l0.049,0.035v0.482l-0.094,0.018c-2.609,0.524-5.368,1.038-7.899,1.038
	c-3.405,0-6.229-1.168-8.038-3.124c1.799,1.521,4.32,2.41,7.289,2.41c2.531,0,5.29-0.512,7.899-1.037l0.096-0.019v-0.482
	l-0.05-0.035c-0.685-0.49-0.682-1.778-0.68-2.915l0.047-1.71C109.635,11.577,109.693,11.069,110.456,10.783 M118.577,16.809
	c-0.062-0.537-0.116-1.367-0.149-3l-0.041-3.438h0.002c1.226-0.17,2.369-0.17,2.857-0.17c1.896,0,2.892,0.077,3.487,0.504
	c0.061,0.133,0.116,0.279,0.168,0.442c-0.619-0.189-1.519-0.233-2.907-0.233c-0.488,0-1.631,0-2.858,0.17h-0.001l0.042,3.438
	c0.024,1.19,0.061,1.952,0.102,2.489C119.033,16.956,118.804,16.888,118.577,16.809 M127.408,5.567
	c0.012-0.25,0.008-0.502-0.013-0.747c0.028-0.245,0.087-0.599,0.145-0.951l0.056-0.336c0.045-0.26,0.084-0.483,0.098-0.591
	c0.066-0.451,0.101-0.781,0.119-1.055c0.221-0.01,0.438-0.02,0.645-0.033l0.125-0.006l-0.001,0.125
	c-0.001,0.402-0.013,0.834-0.139,1.683c-0.014,0.107-0.053,0.331-0.099,0.591l-0.055,0.336c-0.066,0.407-0.139,0.828-0.158,1.064
	l-0.012,0.123l-0.717-0.096L127.408,5.567z M114.924,2.629c-0.17-0.031-0.363-0.064-0.595-0.103L114.23,2.51V1.926
	c0.268,0.051,0.459,0.096,0.609,0.144C114.868,2.209,114.896,2.39,114.924,2.629 M126.285,12.629
	c-0.036-1.872-0.039-2.605,0.035-4.131c0.034-0.111,0.07-0.227,0.104-0.355l0.024-0.087h0.681l-0.008,0.124
	c-0.128,2.326-0.131,2.912-0.088,5.162l0.002,0.121h-0.587l-0.021-0.093c-0.053-0.229-0.105-0.433-0.16-0.622h0.02L126.285,12.629z
	 M119.195,8.582c-0.277-0.004-0.518-0.012-0.719-0.02c-0.025-0.491-0.049-1.089-0.049-1.796c0-1.175,0.1-3.024,0.318-4.313V2.45
	c0.942-0.18,2.847-0.35,3.635-0.35c1.795,0,2.919,0.199,3.559,0.639c0.049,0.131,0.088,0.268,0.11,0.409
	c-0.668-0.226-1.614-0.335-2.921-0.335c-0.787,0-2.691,0.17-3.634,0.352l-0.002,0.002c-0.216,1.289-0.316,3.139-0.316,4.312
	C119.177,7.883,119.186,8.249,119.195,8.582 M136.573,17.294c-0.259-0.095-0.491-0.19-0.681-0.29
	c-0.188-0.873-0.186-2.54-0.184-3.608l0.002-2.964h0.002c1.27,0.086,1.592,0.088,2.298,0.09l0.047-0.007
	c0.125,0.229,0.261,0.47,0.405,0.72c-0.525-0.004-0.927-0.016-2.002-0.09h-0.001l-0.002,2.965
	C136.455,15.026,136.453,16.375,136.573,17.294 M145.234,16.883c-0.343-0.305-0.681-0.66-1.016-1.062
	c-1.061-1.447-2.137-3.352-3.377-5.634l-0.002-0.011l0.039-0.009c1.934-0.489,4.014-2.08,4.014-4.412c0-1.05-0.379-2-1.04-2.777
	c1.116,0.87,1.79,2.093,1.79,3.49c0,2.333-2.081,3.923-4.016,4.413l-0.039,0.01l0.003,0.01
	C142.936,13.375,144.086,15.401,145.234,16.883 M132.294,2.682c-0.243-0.043-0.511-0.074-0.838-0.096l-0.118-0.008l0.04-0.646
	c0.312,0.04,0.566,0.106,0.774,0.224C132.207,2.309,132.256,2.478,132.294,2.682 M136.518,8.755
	c-0.249-0.003-0.507-0.011-0.754-0.026l0.033-3.577c0.046-2.976,0.051-3.288,1.904-3.288c1.412,0,2.427,0.509,3.117,1.212
	c0.043,0.07,0.084,0.14,0.123,0.212c-0.639-0.426-1.452-0.709-2.492-0.709c-1.854,0-1.859,0.311-1.905,3.287L136.518,8.755z
	 M43.311,8.754c-0.248-0.004-0.508-0.012-0.755-0.027l0.034-3.574c0.042-2.977,0.047-3.289,1.902-3.289
	c1.416,0,2.431,0.51,3.121,1.215c0.043,0.07,0.086,0.14,0.123,0.211c-0.639-0.427-1.453-0.711-2.496-0.711
	c-1.854,0-1.858,0.311-1.901,3.288L43.311,8.754z M59.919,2.86c-0.422-0.111-0.987-0.184-1.763-0.216l-0.113-0.005V1.971
	c0.893,0.076,1.434,0.227,1.782,0.443C59.859,2.524,59.891,2.67,59.919,2.86 M52.025,16.883c-0.342-0.304-0.679-0.657-1.014-1.061
	c-1.061-1.447-2.137-3.352-3.377-5.636l-0.003-0.009l0.04-0.011c1.937-0.491,4.021-2.081,4.021-4.412c0-1.05-0.38-1.999-1.04-2.776
	c1.114,0.869,1.789,2.092,1.789,3.489c0,2.333-2.084,3.922-4.021,4.413l-0.039,0.01l0.002,0.01
	C49.728,13.375,50.877,15.401,52.025,16.883 M39.09,2.682c-0.245-0.043-0.515-0.074-0.844-0.096l-0.119-0.008l0.04-0.646
	c0.315,0.041,0.571,0.106,0.78,0.225C39.003,2.309,39.051,2.478,39.09,2.682 M105.053,10.917c0.454,0.03,0.817,0.105,1.098,0.26
	c0.055,0.156,0.098,0.326,0.127,0.521c-0.323-0.062-0.701-0.086-1.152-0.086l-0.994,0.046l0.041-0.7L105.053,10.917z M43.37,17.294
	c-0.253-0.093-0.486-0.19-0.679-0.292c-0.192-0.871-0.191-2.539-0.189-3.607l0.002-2.964l0.002,0.001
	c1.268,0.086,1.592,0.088,2.302,0.09l0.05-0.007c0.124,0.229,0.26,0.47,0.403,0.72c-0.53-0.004-0.931-0.016-2.006-0.09l-0.003-0.002
	l-0.001,2.967C43.25,15.025,43.25,16.376,43.37,17.294 M84.915,1.765c0.599,0.06,1.054,0.165,1.405,0.418
	c0.055,0.13,0.105,0.275,0.15,0.438c-0.396-0.113-0.881-0.159-1.48-0.196l-0.119-0.007L84.915,1.765 M108.443,5.704
	c0.084-0.004,0.158-0.025,0.221-0.081c0.121-0.136,0.119-0.366,0.117-0.568l-0.283-3.034c0.027-0.039,0.057-0.064,0.086-0.111
	l0.038-0.061l0.544,0.045l0.363,3.875c0.002,0.202,0.005,0.434-0.117,0.568c-0.068,0.061-0.146,0.088-0.241,0.088
	C109.049,6.424,108.869,6.284,108.443,5.704 M71.688,2.667c0.05,0.107,0.092,0.226,0.133,0.352c-0.375-0.15-0.826-0.258-1.375-0.361
	l-0.09-0.018L70.32,2.075C70.902,2.211,71.345,2.39,71.688,2.667 M97.379,15.467c-0.273-0.232-0.533-0.482-0.777-0.755
	c-0.938-1.343-1.535-3.069-1.535-5.174c0-5.165,4.281-7.571,7.175-7.571c2.37,0,3.964,1.274,4.692,2.02
	c0.031,0.045,0.064,0.092,0.094,0.133c-0.865-0.686-2.218-1.439-4.037-1.439c-2.894,0-7.175,2.407-7.175,7.572
	C95.815,12.379,96.424,14.118,97.379,15.467 M74.689,16.999c-0.256-0.094-0.465-0.201-0.639-0.32
	c-0.211-0.555-0.205-1.326-0.187-2.476l0.089-7.433l0.051-1.412l0.001,0.002c0.183,0.195,0.448,0.46,0.745,0.754l-0.048,1.369
	l-0.089,7.434C74.599,15.819,74.592,16.483,74.689,16.999"/>
</svg>
