<?xml version="1.0" standalone="no"?>
<!DOCTYPE svg PUBLIC "-//W3C//DTD SVG 20010904//EN"
 "http://www.w3.org/TR/2001/REC-SVG-20010904/DTD/svg10.dtd">
<svg version="1.0" xmlns="http://www.w3.org/2000/svg"
 width="16.000000pt" height="16.000000pt" viewBox="0 0 16.000000 16.000000"
 preserveAspectRatio="xMidYMid meet">
<metadata>
Created by potrace 1.11, written by Peter Selinger 2001-2013
</metadata>
<g transform="translate(0.000000,16.000000) scale(0.001600,-0.001600)"
fill="#000000" stroke="none">
<path d="M2330 7855 c-434 -82 -792 -414 -907 -842 -24 -89 -27 -115 -27 -278
0 -163 3 -189 27 -278 86 -321 312 -595 609 -740 451 -221 976 -121 1331 252
371 390 417 943 117 1392 -65 97 -250 275 -351 337 -98 60 -222 113 -336 143
-103 28 -353 35 -463 14z"/>
<path d="M4781 7849 c-416 -87 -747 -394 -865 -800 -80 -279 -56 -551 74 -814
69 -140 129 -223 236 -324 293 -279 708 -379 1103 -265 374 108 673 420 779
812 23 88 26 115 26 277 0 165 -3 188 -28 280 -119 433 -474 764 -904 840
-113 21 -307 18 -421 -6z"/>
<path d="M7280 7855 c-516 -98 -910 -541 -946 -1065 -26 -364 173 -759 491
-979 220 -152 454 -221 709 -208 301 16 554 133 768 355 142 147 236 312 285
500 34 132 43 338 18 467 -46 250 -159 454 -352 635 -145 137 -311 228 -510
281 -103 28 -353 35 -463 14z"/>
<path d="M3595 5604 c-315 -37 -541 -147 -749 -364 -433 -454 -417 -1152 36
-1586 448 -428 1132 -426 1581 5 373 358 461 880 224 1326 -152 286 -430 507
-735 585 -120 31 -264 44 -357 34z"/>
<path d="M6155 5594 c-420 -75 -780 -391 -915 -804 -40 -122 -54 -230 -47
-374 12 -285 125 -528 347 -746 300 -296 701 -405 1090 -296 440 122 758 471
836 917 21 121 14 319 -15 432 -84 322 -307 603 -597 754 -217 113 -477 156
-699 117z"/>
<path d="M4845 3330 c-689 -107 -1128 -803 -925 -1465 98 -317 359 -598 664
-716 168 -65 213 -73 421 -73 174 0 198 2 288 27 520 140 873 619 844 1147
-29 526 -390 954 -902 1066 -84 19 -307 26 -390 14z"/>
</g>
</svg>
